<?xml version="1.0" encoding="UTF-8"?>
<svg width="742px" height="523px" viewBox="0 0 742 523" version="1.1" xmlns="http://www.w3.org/2000/svg" xmlns:xlink="http://www.w3.org/1999/xlink">
    <title>Dog walking</title>
    <g id="Page-1" stroke="none" stroke-width="1" fill="none" fill-rule="evenodd">
        <g id="Dog-walking" transform="translate(0.000000, 0.000000)">
            <path d="M291.716,327.85638 C292.178587,324.710968 291.224183,321.522213 289.109603,319.148155 C286.995022,316.774097 283.937484,315.45861 280.75972,315.55567 L211.95535,245.98875 L198.36322,264.98984 L270.26965,327.39705 C270.798136,332.844251 275.317282,337.035293 280.788806,337.15248 C286.260329,337.269667 290.954773,333.275959 291.716,327.85638 L291.716,327.85638 Z" id="Path" fill="#CA8D8D" fill-rule="nonzero" transform="translate(245.096812, 291.571872) rotate(-360.000000) translate(-245.096812, -291.571872) "></path>
            <path d="M259.12378,287.68641 L241.56248,305.22841 C239.812461,306.966332 236.991444,306.977697 235.22748,305.25393 L187.24,258.07575 C182.725139,253.636456 180.942314,247.114417 182.571107,240.99573 C184.1999,234.877043 188.989331,230.104538 195.113747,228.497417 C201.238162,226.890296 207.753848,228.696201 212.17713,233.22675 L259.16374,281.35919 C260.877372,283.126551 260.859598,285.940834 259.12378,287.68641 Z" id="Path" fill="#8E6E35" fill-rule="nonzero"></path>
            <circle id="Oval" fill="#CA8D8D" fill-rule="nonzero" cx="197.53392" cy="177.02015" r="24.56103"></circle>
            <polygon id="Path" fill="#CA8D8D" fill-rule="nonzero" points="114.54297 471.345 120.76197 481.91 164.47397 462.951 155.29497 447.357"></polygon>
            <path d="M116.40645,466.61983 L128.65378,487.4267 L128.65427,487.42755 C130.724257,490.944311 131.312389,495.13935 130.289275,499.089754 C129.266161,503.040159 126.715616,506.422313 123.19876,508.49214 L122.76786,508.74575 L102.71549,474.67875 L116.40645,466.61983 Z" id="Path" fill="#000000" fill-rule="nonzero"></path>
            <polygon id="Path" fill="#CA8D8D" fill-rule="nonzero" points="186.59997 509.407 198.85997 509.407 204.69197 462.119 186.59797 462.12"></polygon>
            <path d="M183.473,505.40478 L207.6168,505.40378 L207.6178,505.40378 C211.698538,505.40378 215.612175,507.02467 218.497715,509.910165 C221.383256,512.79566 223.00427,516.709272 223.00427,520.79001 L223.00427,521.29001 L183.47375,521.29147 L183.473,505.40478 Z" id="Path" fill="#000000" fill-rule="nonzero"></path>
            <path d="M137.31143,480.757361 C135.880467,480.757361 134.53463,480.077576 133.68743,478.92436 L121.8637,462.86576 C121.13479,461.875918 120.842585,460.630955 121.054989,459.420178 C121.267394,458.209401 121.965912,457.138239 122.98822,456.45561 L175.60222,421.31401 L143.85564,337.8394 L211.7448,343.44194 L214.03142,415.17534 C214.468622,428.487097 207.52967,440.955105 195.98625,447.59916 L139.55974,480.15287 C138.876562,480.548719 138.101005,480.757361 137.31143,480.757361 L137.31143,480.757361 Z" id="Path" fill="#000000" fill-rule="nonzero"></path>
            <path d="M186.97012,499.80716 C184.550394,499.802716 182.567405,497.885519 182.48135,495.46732 L179.99335,425.58548 L210.8017,423.96248 L208.34858,494.34627 C208.27377,496.65676 206.455896,498.532329 204.14887,498.67927 L187.27607,499.79744 C187.17373,499.80423 187.07168,499.80716 186.97012,499.80716 Z" id="Path" fill="#000000" fill-rule="nonzero"></path>
            <path d="M219.60171,357.31888 C211.76333,357.31888 184.38516,348.50247 174.88052,345.35988 C173.45864,346.49757 165.64737,352.33839 156.52945,351.27101 C150.90345,350.61085 145.95059,347.42628 141.80845,341.80519 C132.66145,329.39113 143.95908,276.15382 155.04745,233.67919 C159.667432,215.83593 177.573875,204.843433 195.57602,208.79931 L195.57602,208.79931 C208.381272,211.626204 218.484739,221.454808 221.66366,234.17724 C223.75131,242.67524 221.95541,252.67138 220.64413,259.97118 C220.02768,263.40282 219.54062,266.11376 219.70713,267.44579 C220.35068,272.59423 223.92588,353.33739 221.62705,356.78564 C221.38223,357.15286 220.67422,357.31888 219.60171,357.31888 Z" id="Path" fill="#8E6E35" fill-rule="nonzero"></path>
            <path d="M190.92679,357.4619 C193.476977,355.563448 195.055282,352.632925 195.237013,349.458882 C195.418743,346.284839 194.18523,343.193325 191.86839,341.01621 L192.35372,243.17265 L169.30894,247.01005 L176.07819,341.98042 C172.602447,346.207784 172.83784,352.3667 176.62611,356.316435 C180.41438,360.26617 186.558116,360.758275 190.92679,357.4619 L190.92679,357.4619 Z" id="Path" fill="#CA8D8D" fill-rule="nonzero"></path>
            <path d="M196.25674,306.00833 L171.435,306.00833 C168.968657,306.001122 166.964781,304.015504 166.935,301.54933 L166.32563,234.25733 C166.268034,227.925369 169.615786,222.050395 175.092617,218.87213 C180.569447,215.693865 187.331304,215.702125 192.800354,218.893759 C198.269404,222.085393 201.602794,227.968529 201.52973,234.30033 L200.75654,301.56009 C200.719902,304.021533 198.718442,306.00006 196.25674,306.00833 Z" id="Path" fill="#8E6E35" fill-rule="nonzero"></path>
            <path d="M191.28005,201.479142 C180.03476,201.49945 169.42589,192.61086 167.47719,181.53563 C166.779508,177.184718 167.094074,172.73154 168.39646,168.52191 C171.257481,158.826094 178.176121,150.843778 187.367241,146.63455 C196.558361,142.425322 207.121712,142.401467 216.33175,146.56914 C219.34007,147.93045 222.30321,149.88558 223.68065,152.88655 C225.05809,155.88752 224.19601,160.08183 221.18274,161.43215 C219.21359,162.31458 216.74252,161.88125 214.99556,163.14789 C213.898134,163.943578 209.258357,166.248049 208.040552,170.267525 C206.473818,175.438676 206.452465,184.250331 203.951918,183.669388 C201.140222,183.016157 201.28223,179.63 198.40916,179.92455 C194.21877,180.35415 191.20744,184.52228 190.65006,188.6976 C190.09268,192.87292 191.4048,197.04652 192.70024,201.05474 L191.28005,201.479142 Z" id="Path" fill="#000000" fill-rule="nonzero"></path>
        
            <path d="M498.61853,226.54561 C498.61853,159.3802 553.06688,0 620.23229,0 C687.3977,0 741.846,159.3802 741.846,226.54561 C741.846,293.711021 687.397676,348.159345 620.232265,348.159345 C553.066854,348.159345 498.61853,293.711021 498.61853,226.54561 L498.61853,226.54561 Z" id="Leaf" fill="#8E6E35" fill-rule="nonzero"></path>
            <path d="M620.23225,522.41798 C619.679965,522.41798 619.23225,521.970265 619.23225,521.41798 L619.23225,102.13378 C619.23225,101.581495 619.679965,101.13378 620.23225,101.13378 C620.784535,101.13378 621.23225,101.581495 621.23225,102.13378 L621.23225,521.41798 C621.23225,521.970265 620.784535,522.41798 620.23225,522.41798 Z" id="Path" fill="#000000" fill-rule="nonzero"></path>
            <path d="M620.23225,183.079591 C619.966934,183.079591 619.712431,182.974472 619.5251,182.78659 L571.39058,134.65231 C571.004322,134.261043 571.006379,133.631341 571.395184,133.242605 C571.783989,132.853869 572.413691,132.851923 572.80489,133.23825 L620.93941,181.37252 C621.225338,181.658535 621.310842,182.088616 621.156057,182.462248 C621.001272,182.835881 620.636675,183.079591 620.23225,183.079591 L620.23225,183.079591 Z" id="Path" fill="#000000" fill-rule="nonzero"></path>
            <path d="M620.23225,266.409661 C619.827827,266.409661 619.463233,266.166015 619.308451,265.792384 C619.153668,265.418752 619.239173,264.988674 619.5251,264.70266 L700.1351,184.09231 C700.526359,183.70634 701.15577,183.708454 701.544426,184.097045 C701.933082,184.485635 701.935304,185.115046 701.5494,185.50637 L620.9394,266.11672 C620.752048,266.304564 620.497554,266.409661 620.23225,266.409661 Z" id="Path" fill="#000000" fill-rule="nonzero"></path>
            <path d="M283.67754,327.28731 C299.63235,323.68053 317.70789,336.16072 318.26816,352.91499 C318.42575,357.62748 317.04462,362.57637 313.41843,365.78228 C310.42471,368.42903 305.9698,369.76378 302.09973,368.47012 C294.65236,365.98067 294.25473,355.60325 298.24973,350.0607 C303.65912,342.55591 314.37548,341.27447 322.87892,342.16707 C333.27502,343.25834 343.15581,347.81663 351.44725,354.06464 C368.04595,366.57257 378.61525,385.74253 387.17014,404.26406 C395.927967,423.263835 402.296252,443.276179 406.12926,463.84312 C406.611687,466.42632 407.05365,469.016523 407.45515,471.61373 C407.691501,472.405444 408.520092,472.860362 409.31495,472.63481 C410.096752,472.386298 410.545998,471.568031 410.33602,470.77501 C406.834361,448.331551 400.366267,426.452825 391.10152,405.71313 C382.14408,385.64064 370.85142,364.81989 352.88687,351.42429 C343.93146,344.74653 333.35614,340.09976 322.1644,339.10604 C312.74268,338.26948 301.58589,340.2627 295.72681,348.45704 C291.10452,354.92166 291.57406,365.66541 298.72611,370.16765 C302.65811,372.64284 307.65441,372.35365 311.73711,370.42921 C316.122101,368.263968 319.334558,364.281753 320.52311,359.53794 C323.06261,350.23276 319.20642,340.16808 312.595,333.51694 C306.38989,327.257124 297.957269,323.710958 289.14333,323.65482 C287.020918,323.678062 284.907197,323.930065 282.83881,324.40646 C280.95528,324.83225 281.79703,327.71246 283.67753,327.28734 L283.67754,327.28731 Z" id="Path" fill="#000000" fill-rule="nonzero"></path>
            <path d="M360.621,511.54983 L350.70625,494.6217 L362.93192,487.46091 L372.84666,504.3885 L372.84666,504.38903 C374.82406,507.765053 373.690252,512.104859 370.31423,514.08226 C366.938207,516.05966 362.5984,514.925852 360.621,511.54983 L360.621,511.54983 Z" id="Path" fill="#8E6E35" fill-rule="nonzero"></path>
            <circle id="Oval" fill="#8E6E35" fill-rule="nonzero" cx="327.83843" cy="467.64477" r="8.71897"></circle>
            <path d="M398.98251,511.54983 L389.06777,494.6217 L401.29316,487.46091 L411.20791,504.3885 C413.18062,507.764035 412.045781,512.099542 408.672247,514.075672 C405.298714,516.051803 400.962059,514.921359 398.98251,511.54983 Z" id="Path" fill="#8E6E35" fill-rule="nonzero"></path>
            <path d="M329.495,485.20985 C329.506512,474.981995 337.794955,466.693552 348.02281,466.68204 L406.6739,466.68204 C410.996875,466.68711 414.500034,470.190385 414.50496,474.51336 L414.50496,481.18723 C414.490918,493.635673 404.402963,503.723628 391.95452,503.73767 L348.02278,503.73767 C337.794933,503.726141 329.506507,495.437697 329.495,485.20985 Z" id="Path" fill="#000000" fill-rule="nonzero"></path>
            <path d="M343.02044,513.73276 L343.02044,494.11508 L357.18877,494.11508 L357.18877,513.73276 C357.18877,517.645236 354.017081,520.816925 350.104605,520.816925 C346.192129,520.816925 343.02044,517.645236 343.02044,513.73276 L343.02044,513.73276 Z" id="Path" fill="#000000" fill-rule="nonzero"></path>
            <path d="M384.132995,513.73276 L384.132995,494.11508 L398.301335,494.11508 L398.301335,513.73276 C398.304339,516.265693 396.954764,518.607509 394.761679,519.874845 C392.568595,521.142181 389.865735,521.142181 387.672651,519.874845 C385.479566,518.607509 384.129991,516.265693 384.132995,513.73276 Z" id="Path" fill="#000000" fill-rule="nonzero"></path>
            <g id="Dog-head" transform="translate(405.872465, 431.751492)" fill-rule="nonzero">
                <path d="M35.905645,4.36520793 C38.9242217,0.622204282 44.4032728,0.0296104873 48.1523418,3.04065073 C51.9014108,6.05169097 52.5050265,11.5295387 49.501535,15.2846579 L35.169745,33.1292179 L21.573895,22.2097579 L35.905645,4.36520793 Z" id="Path" fill="#8E6E35"></path>
                <path d="M1.38253498,39.5179279 L12.864165,25.2221179 C18.6770627,18.0013227 29.2379405,16.848362 36.471965,22.6447879 L40.059305,25.5259379 C48.6686957,32.456633 50.0433701,45.0483997 43.132245,53.6735079 L33.672695,65.4516279 C31.4962635,68.1550386 27.5422603,68.5866233 24.833865,66.4163979 L2.34747498,48.3565479 C-0.355969317,46.1802457 -0.787634258,42.2262979 1.38253498,39.5179279 Z" id="Path" fill="#000000"></path>
                <path d="M37.611815,2.24084793 C38.9528345,0.571140215 41.0827662,-0.256307878 43.1992853,0.0701953726 C45.3158043,0.396698623 47.0973612,1.8275496 47.8728605,3.82376054 C48.6483598,5.81997148 48.2999848,8.07827042 46.958965,9.74797793 L30.921015,29.7168879 L21.573865,22.2097579 L37.611815,2.24084793 Z" id="Path" fill="#000000"></path>
                <path d="M14.636325,35.6195979 L39.278805,55.4111079 C43.0185045,58.430623 43.6092002,63.9070969 40.5993971,67.6546173 C37.5895941,71.4021376 32.114671,72.0070388 28.359355,69.0069679 L3.71686498,49.2154879 L14.636325,35.6195979 Z" id="Path" fill="#000000"></path>
                <ellipse id="Oval" fill="#8E6E35" transform="translate(40.078703, 67.034922) rotate(-51.230450) translate(-40.078703, -67.034922) " cx="40.0787032" cy="67.0349216" rx="3.67832" ry="2.04351"></ellipse>
            </g>
            <path d="M692,522.2326 L1,522.2326 C0.44771525,522.2326 0,521.784885 0,521.2326 C0,520.680315 0.44771525,520.2326 1,520.2326 L692,520.2326 C692.552285,520.2326 693,520.680315 693,521.2326 C693,521.784885 692.552285,522.2326 692,522.2326 Z" id="Path" fill="#000000" fill-rule="nonzero"></path>
        </g>
    </g>
</svg>