<?xml version="1.0" encoding="UTF-8"?>
<svg width="92px" height="94px" viewBox="0 0 92 94" version="1.1" xmlns="http://www.w3.org/2000/svg" xmlns:xlink="http://www.w3.org/1999/xlink">
    <title>paws</title>
    <g id="Page-1" stroke="none" stroke-width="1" fill="none" fill-rule="evenodd">
        <g id="paws" transform="translate(0.143730, 0.806569)" fill-rule="nonzero">
            <path d="M38.8177629,2.71947764 C38.4129014,2.80663048 37.7705398,3.27051974 37.4444979,3.94447862 C37.118456,4.61843749 37.1663727,5.30420193 37.5260952,5.46045205 C37.8858177,5.6170494 38.5368599,5.11184066 38.9504019,5.18579905 C39.3639439,5.25975745 39.8858193,5.67295222 40.3906808,5.51114654 C40.8962368,5.34864641 40.5712365,4.00107588 40.2139445,3.450381 C39.8559581,2.89933889 39.4597773,2.58197753 38.8177629,2.71947764 Z" id="Path" fill="#8E6E35"></path>
            <path d="M41.4497094,2.23614392 C41.2434593,2.05211599 40.8799173,2.15315774 40.6368615,2.45975521 C40.3948475,2.7666999 40.3649863,3.16218632 40.5708893,3.34656147 C40.7767922,3.5305894 41.1410286,3.4333671 41.3837371,3.12676963 C41.6264457,2.82051938 41.6559596,2.42051906 41.4497094,2.23614392 Z" id="Path" fill="#8E6E35"></path>
            <path d="M38.3760959,2.43024129 C38.7215822,2.34204678 38.9031796,1.86044917 38.7635962,1.35801821 C38.6295683,0.854892811 38.2444985,0.522600879 37.9038733,0.614614841 C37.563248,0.706976026 37.3955395,1.18510141 37.5292202,1.68371292 C37.6684564,2.18197721 38.0316511,2.51843581 38.3760959,2.43024129 Z" id="Path" fill="#8E6E35"></path>
            <path d="M37.3712339,2.39517182 C37.1441504,2.08440768 36.7694973,1.97572704 36.5646361,2.14690773 C36.3604692,2.31739398 36.3670665,2.7066304 36.5986639,3.01565843 C36.8285252,3.32503368 37.1879005,3.43926988 37.4010951,3.26878363 C37.6146369,3.09795016 37.6010952,2.70558874 37.3712339,2.39517182 Z" id="Path" fill="#8E6E35"></path>
            <path d="M40.4910281,1.72433795 C40.6083893,1.21982366 40.4243614,0.729545489 40.0802639,0.633017634 C39.7365136,0.536142556 39.3629022,0.867045599 39.2451938,1.36843489 C39.1340826,1.86912973 39.2983188,2.3562829 39.6368607,2.45697743 C39.9754027,2.55732473 40.3622086,2.23058836 40.4910281,1.72433795 Z" id="Path" fill="#8E6E35"></path>
            <path d="M56.2125685,41.5337448 C56.5188187,41.8122172 57.2702082,42.064648 58.0077088,41.9372173 C58.7455566,41.8097867 59.2754181,41.3719391 59.1931264,40.9882583 C59.1108347,40.6045774 58.3209035,40.3695078 58.1400006,39.9903408 C57.9597921,39.6108266 57.9917365,38.9458955 57.5660418,38.6295758 C57.1396525,38.3132561 56.2334018,39.3622153 55.9938183,39.9733269 C55.7538875,40.5851329 55.7268042,41.0920778 56.2125685,41.5337448 Z" id="Path" fill="#8E6E35"></path>
            <path d="M54.2868725,39.67541 C54.2573586,39.9504102 54.551456,40.1868687 54.9420813,40.2056187 C55.3327066,40.2243688 55.6715958,40.0181186 55.7014569,39.7434656 C55.7309708,39.4688126 55.4403456,39.2292291 55.0497203,39.2104791 C54.659095,39.191729 54.3167336,39.400757 54.2868725,39.67541 Z" id="Path" fill="#8E6E35"></path>
            <path d="M56.2344435,42.061523 C55.9615266,41.8320089 55.464304,41.9646479 55.1372204,42.3708982 C54.8059701,42.7729819 54.7597895,43.2792323 55.0330536,43.5024964 C55.3063177,43.7257604 55.7927765,43.5837464 56.1205545,43.1847878 C56.4445131,42.7813152 56.5066659,42.2899954 56.2344435,42.061523 Z" id="Path" fill="#8E6E35"></path>
            <path d="M56.7910411,42.8986764 C56.6705549,43.2643017 56.8004161,43.6323576 57.0587497,43.6993715 C57.3160416,43.765691 57.6285418,43.5340936 57.7452086,43.1656905 C57.862917,42.7990236 57.7465975,42.4399955 57.4834028,42.3660371 C57.2205554,42.2917315 56.9097912,42.531315 56.7910411,42.8986764 Z" id="Path" fill="#8E6E35"></path>
            <path d="M54.4288865,40.7524942 C53.9504139,40.9511054 53.6590942,41.3861752 53.7806221,41.7222866 C53.9024972,42.0580508 54.3889559,42.1695092 54.8649979,41.9729813 C55.3368733,41.7715922 55.6372208,41.3549252 55.5219429,41.0208972 C55.406665,40.6872163 54.9153452,40.5625635 54.4288865,40.7524942 Z" id="Path" fill="#8E6E35"></path>
            <path d="M87.8365521,20.0326859 C87.7768298,20.4427557 87.9872467,21.2069924 88.5046082,21.7476179 C89.0223169,22.2882433 89.6816925,22.4830351 89.9539149,22.200396 C90.2261373,21.9181041 89.9799566,21.1312979 90.1934984,20.7698393 C90.4077347,20.4080335 90.9768324,20.0632415 91.0014852,19.53338 C91.0257907,19.0031712 89.649748,18.8371989 89.0087752,18.9802545 C88.3674553,19.122963 87.9316911,19.3833799 87.8365521,20.0326859 Z" id="Path" fill="#8E6E35"></path>
            <path d="M88.3025247,17.3979616 C88.05808,17.5267811 88.0257883,17.9028231 88.2285663,18.2371984 C88.430997,18.5715737 88.791414,18.7378932 89.0358586,18.6090737 C89.2806505,18.4802541 89.3167616,18.1052538 89.1143309,17.7708786 C88.9119002,17.4361561 88.5473165,17.2691421 88.3025247,17.3979616 Z" id="Path" fill="#8E6E35"></path>
            <path d="M87.4112045,20.3458806 C87.449399,19.9913665 87.0612042,19.6531717 86.5417594,19.60838 C86.0233562,19.55838 85.5775225,19.8028246 85.5448836,20.1542138 C85.5122447,20.505603 85.9018283,20.8299088 86.4160648,20.8788672 C86.931343,20.92227 87.3737045,20.6993531 87.4112045,20.3458806 Z" id="Path" fill="#8E6E35"></path>
            <path d="M87.0275237,21.2753953 C86.6570373,21.379562 86.4243982,21.6927567 86.5129399,21.944493 C86.6014817,22.1951877 86.9684958,22.3247017 87.3389822,22.2156738 C87.7091214,22.108382 87.9417605,21.8115068 87.8563438,21.5521316 C87.770927,21.2927564 87.3987045,21.1684507 87.0275237,21.2753953 Z" id="Path" fill="#8E6E35"></path>
            <path d="M87.4882879,18.1174066 C87.0563431,17.8312953 86.5327316,17.8326842 86.3216203,18.1212261 C86.1108563,18.409768 86.2910647,18.8753933 86.7198845,19.1608102 C87.1500932,19.4396299 87.6639825,19.4559494 87.8764827,19.1740047 C88.0886356,18.8917128 87.9174549,18.4146291 87.4882879,18.1174066 Z" id="Path" fill="#8E6E35"></path>
            <path d="M71.4368862,2.81044993 C71.0226497,2.82121383 70.3056353,3.1587141 69.8611905,3.76079791 C69.4163985,4.36288173 69.3368845,5.04586839 69.6615375,5.26600745 C69.9865378,5.48614652 70.7195245,5.1094101 71.1122332,5.25836856 C71.5049418,5.40767423 71.9417477,5.91010519 72.468137,5.84413291 C72.9948735,5.77781342 72.9240402,4.39309009 72.67404,3.78614516 C72.4240398,3.17850578 72.0931367,2.79343603 71.4368862,2.81044993 Z" id="Path" fill="#8E6E35"></path>
            <path d="M74.1125828,2.82086661 C73.9441799,2.60176921 73.5681379,2.6340609 73.2729988,2.89065833 C72.9778596,3.14725576 72.875429,3.5305894 73.0441791,3.74968679 C73.2125821,3.96878419 73.588624,3.94065917 73.8834159,3.68406174 C74.178555,3.42781154 74.2813329,3.03961678 74.1125828,2.82086661 Z" id="Path" fill="#8E6E35"></path>
            <path d="M71.0559831,2.44482464 C71.4118862,2.42156073 71.6792475,1.98162982 71.6344558,1.46183774 C71.5955669,0.942740104 71.2785527,0.545170341 70.9268163,0.572948141 C70.5750799,0.600725941 70.3219547,1.03961518 70.3611909,1.55454615 C70.4063298,2.06982434 70.7011217,2.46774132 71.0559831,2.44482464 Z" id="Path" fill="#8E6E35"></path>
            <path d="M70.0747323,2.22468557 C69.9091072,1.87746307 69.560843,1.70142127 69.3278567,1.8316297 C69.0959121,1.96183814 69.0306343,2.345519 69.2011205,2.69204706 C69.3698706,3.03822789 69.7018154,3.21704748 69.943135,3.08857515 C70.1841074,2.96010283 70.2431352,2.5722553 70.0747323,2.22468557 Z" id="Path" fill="#8E6E35"></path>
            <path d="M73.2653599,2.14100495 C73.4733462,1.66635179 73.3827211,1.15072638 73.0625819,0.992392921 C72.7424428,0.833712239 72.3139702,1.08996244 72.1059839,1.56114338 C71.9045949,2.03301875 71.9761227,2.54169972 72.2900119,2.70315818 C72.6042482,2.86426942 73.0452208,2.61461644 73.2653599,2.14100495 Z" id="Path" fill="#8E6E35"></path>
            <path d="M34.7115096,61.0396632 C34.2969259,61.0313298 33.5653281,61.3351495 33.0931055,61.9157055 C32.6208829,62.4966088 32.5094245,63.1750816 32.8236609,63.4101512 C33.1378972,63.6452208 33.8875506,63.3032067 34.2729676,63.4698735 C34.6583845,63.6372347 35.0712321,64.1594573 35.6003992,64.1181379 C36.1292191,64.0764712 36.122969,62.6900117 35.9017883,62.0719557 C35.6802604,61.4532052 35.3674129,61.0532049 34.7115096,61.0396632 Z" id="Path" fill="#8E6E35"></path>
            <path d="M37.3837339,61.1747327 C37.2257477,60.9479964 36.8483169,60.962927 36.5417194,61.2052883 C36.2351219,61.4479968 36.1149829,61.8264694 36.2729692,62.0528584 C36.4313026,62.2795947 36.808039,62.2688308 37.1146365,62.0261223 C37.4215812,61.7841082 37.5420674,61.4011218 37.3837339,61.1747327 Z" id="Path" fill="#8E6E35"></path>
            <path d="M34.3479676,60.6566768 C34.7045651,60.6500795 34.9920654,60.2233431 34.9715792,59.7021621 C34.9566487,59.1813284 34.6587318,58.7695225 34.3059537,58.7809808 C33.9535229,58.7924392 33.6799115,59.2188284 33.6951893,59.7351482 C33.7163699,60.2518153 33.9924118,60.6629268 34.3479676,60.6566768 Z" id="Path" fill="#8E6E35"></path>
            <path d="M33.377828,60.3913988 C33.2285223,60.0365374 32.8889387,59.8448706 32.6500496,59.9639679 C32.4122022,60.0834124 32.329216,60.4632738 32.48373,60.8174408 C32.6358135,61.1712605 32.9594249,61.3650107 33.2063,61.2483439 C33.4531752,61.1309827 33.5299114,60.7462602 33.377828,60.3913988 Z" id="Path" fill="#8E6E35"></path>
            <path d="M36.5688027,60.4559822 C36.7990113,59.9917457 36.7323445,59.472648 36.4198443,59.299384 C36.107344,59.12612 35.6677604,59.3622313 35.4378991,59.8229955 C35.214635,60.2848015 35.2625517,60.7966074 35.5688019,60.972302 C35.874705,61.1479966 36.3271359,60.9188298 36.5688027,60.4559822 Z" id="Path" fill="#8E6E35"></path>
            <path d="M2.86009522,90.2636449 C3.19585937,90.0209364 3.59690136,89.3376025 3.62433194,88.5896852 C3.65106807,87.8414207 3.33127615,87.2327397 2.93891472,87.2344721 C2.54690052,87.2362119 2.15419187,87.9608653 1.74585821,88.0598237 C1.33752455,88.1584349 0.693426817,87.9903792 0.296204277,88.3421156 C-0.101018263,88.693852 0.739260187,89.7966306 1.28821896,90.1567004 C1.83752495,90.5171173 2.32815035,90.6480202 2.86009522,90.2636449 Z" id="Path" fill="#8E6E35"></path>
            <path d="M0.645510112,91.7657294 C0.908357545,91.8514934 1.20037167,91.6122571 1.29933008,91.2337846 C1.39794127,90.8556593 1.26599672,90.4813534 1.00314929,90.3955894 C0.740301855,90.3101727 0.446204397,90.5455896 0.347593207,90.9237149 C0.248634795,91.3021874 0.38266268,91.6803127 0.645510112,91.7657294 Z" id="Path" fill="#8E6E35"></path>
            <path d="M3.38092897,90.3504505 C3.10037319,90.5702424 3.12780376,91.0844789 3.45801236,91.4882987 C3.78335984,91.8948962 4.26947134,92.0438547 4.54412434,91.8226739 C4.81877734,91.601146 4.78023564,91.09559 4.45697149,90.6928119 C4.12884623,90.2931588 3.6607903,90.1310059 3.38092897,90.3504505 Z" id="Path" fill="#8E6E35"></path>
            <path d="M4.31495749,89.9778808 C4.64794387,90.1712837 5.03474973,90.1198948 5.15349983,89.8806585 C5.27120826,89.6421166 5.10870813,89.2889913 4.77224952,89.0990606 C4.43752703,88.9087827 4.06252673,88.9487133 3.93613774,89.1907274 C3.80940153,89.4327415 3.97988778,89.786214 4.31495749,89.9778808 Z" id="Path" fill="#8E6E35"></path>
            <path d="M1.72884431,91.8483684 C1.82467772,92.3573966 2.19099746,92.7320496 2.54446996,92.6820496 C2.89828969,92.6320496 3.10731764,92.1789242 3.01287312,91.6726738 C2.91287304,91.1692012 2.5666922,90.789687 2.2163447,90.8337842 C1.8659972,90.8782287 1.64308035,91.3334374 1.72884431,91.8483684 Z" id="Path" fill="#8E6E35"></path>
            <path d="M2.71565066,45.95354 C2.30384477,45.9997206 1.61842756,46.3972904 1.22676058,47.0347909 C0.83544082,47.6729858 0.814260247,48.3601391 1.15662163,48.5514587 C1.49898302,48.7431256 2.19724746,48.305278 2.60141445,48.4202086 C3.00523422,48.5354865 3.4833596,48.9986813 4.00245724,48.8875701 C4.52155488,48.7768061 4.33266584,47.4031939 4.03162393,46.8198601 C3.73058202,46.2358319 3.36808173,45.8802761 2.71565066,45.95354 Z" id="Path" fill="#000000"></path>
            <path d="M5.38266668,45.735137 C5.19586097,45.5309702 4.82398568,45.5955536 4.55176324,45.8768038 C4.27988802,46.1573596 4.21079074,46.5483321 4.39724922,46.7521518 C4.58405493,46.9556241 4.95593023,46.8955546 5.22815267,46.6149989 C5.50002788,46.3340959 5.56947238,45.9389567 5.38266668,45.735137 Z" id="Path" fill="#000000"></path>
            <path d="M2.30488644,45.6215953 C2.6576645,45.568123 2.88648413,45.1070115 2.79759517,44.5931222 C2.71426177,44.0788857 2.36460871,43.7097882 2.01634454,43.7677744 C1.6684276,43.8254133 1.45349687,44.2844414 1.53648305,44.7938169 C1.62571923,45.3035395 1.95349727,45.6747203 2.30488644,45.6215953 Z" id="Path" fill="#000000"></path>
            <path d="M1.30835786,45.4865257 C1.11391326,45.1542338 0.751760197,45.0087476 0.530579465,45.1584005 C0.310787622,45.3080534 0.27849593,45.6955537 0.478148867,46.0264567 C0.67571847,46.3570125 1.0218993,46.5066654 1.25141337,46.3580542 C1.48058022,46.2097902 1.50592747,45.8181232 1.30835786,45.4865257 Z" id="Path" fill="#000000"></path>
            <path d="M4.4802354,45.1302755 C4.6469022,44.6396501 4.51287432,44.1337469 4.18023516,44.0031912 C3.84759601,43.8726356 3.44273457,44.1643025 3.27572055,44.6514556 C3.11530375,45.138956 3.22988718,45.6396509 3.55662355,45.7736787 C3.88335992,45.9073594 4.30141581,45.6209008 4.4802354,45.1302755 Z" id="Path" fill="#000000"></path>
            <path d="M16.0983003,36.4906852 C16.1298975,36.0774904 15.8673973,35.3299204 15.3142718,34.8257533 C14.7607992,34.3219335 14.0896181,34.1726278 13.8375346,34.4729753 C13.5851038,34.7733227 13.8847568,35.5413789 13.696215,35.9167264 C13.5076732,36.2920739 12.9632283,36.6754076 12.9750339,37.2056163 C12.9868394,37.7361723 14.3712155,37.8077002 15.0007299,37.6212417 C15.6309388,37.4351304 16.047953,37.1451996 16.0983003,36.4906852 Z" id="Path" fill="#8E6E35"></path>
            <path d="M15.813925,39.151104 C16.0489947,39.005965 16.0552447,38.6288814 15.8298973,38.3087422 C15.6052443,37.9889503 15.2344107,37.847978 14.9989938,37.993117 C14.7639242,38.138256 14.7535075,38.5149924 14.9785077,38.8347843 C15.2031606,39.1549235 15.5785082,39.2965902 15.813925,39.151104 Z" id="Path" fill="#8E6E35"></path>
            <path d="M16.5010784,36.1490183 C16.4875367,36.5056158 16.8976064,36.8167271 17.4191346,36.8254077 C17.9399684,36.839991 18.3677465,36.565338 18.3760799,36.21256 C18.3844132,35.8597819 17.9739962,35.5629067 17.4576763,35.549365 C16.940662,35.5413789 16.51462,35.7938097 16.5010784,36.1490183 Z" id="Path" fill="#8E6E35"></path>
            <path d="M16.8205231,35.1955453 C17.1830233,35.0663785 17.3934402,34.737906 17.2878845,34.4931142 C17.1819817,34.2490167 16.8073286,34.1445028 16.4451755,34.2788779 C16.0833697,34.4111697 15.871564,34.7229755 15.9743418,34.9761007 C16.0774669,35.2292259 16.4573283,35.3278371 16.8205231,35.1955453 Z" id="Path" fill="#8E6E35"></path>
            <path d="M16.5767729,38.3778395 C17.0274677,38.6337425 17.5496903,38.5962424 17.7399682,38.2941589 C17.9305934,37.9920753 17.7194821,37.5396444 17.2722595,37.2844358 C16.8236481,37.0354773 16.310106,37.0545745 16.1173975,37.3504081 C15.924689,37.6462417 16.1281614,38.1104782 16.5767729,38.3778395 Z" id="Path" fill="#8E6E35"></path>
            <path d="M88.4254414,52.8191705 C88.1660662,52.4962536 87.4629407,52.1299338 86.7146762,52.141045 C85.9664117,52.1518088 85.3743973,52.5018091 85.3962724,52.8934761 C85.4178002,53.2854903 86.1612035,53.6406989 86.2806481,54.043477 C86.3997454,54.4462551 86.2643286,55.098339 86.6358567,55.4771587 C87.007732,55.8559785 88.0664134,54.9611861 88.3980109,54.394519 C88.7303028,53.8275046 88.8362057,53.3309765 88.4254414,52.8191705 Z" id="Path" fill="#8E6E35"></path>
            <path d="M90.0375955,54.9549361 C90.1098178,54.687922 89.8563454,54.4084079 89.473359,54.3288939 C89.0903725,54.2497272 88.7233584,54.4004218 88.6511361,54.6670886 C88.579261,54.9337555 88.828914,55.2157002 89.2119004,55.2952141 C89.5945396,55.3747281 89.9653732,55.221603 90.0375955,54.9549361 Z" id="Path" fill="#8E6E35"></path>
            <path d="M88.4855109,52.2945173 C88.7195389,52.563962 89.2313449,52.5101425 89.6181507,52.159795 C90.0077344,51.8143086 90.13204,51.3215999 89.8969704,51.0584052 C89.6619008,50.7952105 89.1591226,50.8594467 88.7733584,51.2025025 C88.3907192,51.5504195 88.2525246,52.0261143 88.4855109,52.2945173 Z" id="Path" fill="#8E6E35"></path>
            <path d="M88.0664134,51.3806277 C88.2424552,51.0382663 88.1716218,50.6545854 87.9268299,50.5483353 C87.6827325,50.4424325 87.3379406,50.622641 87.1657182,50.9684746 C86.992107,51.3122248 87.0511348,51.6847946 87.2993989,51.7990308 C87.547663,51.913267 87.8921077,51.7250724 88.0664134,51.3806277 Z" id="Path" fill="#8E6E35"></path>
            <path d="M90.0653733,53.8688241 C90.5688459,53.7472962 90.9244018,53.3625737 90.8566934,53.011879 C90.788985,52.6611843 90.325443,52.4754202 89.8247481,52.595212 C89.3271783,52.7205593 88.9653724,53.0854902 89.0275253,53.4334071 C89.0893309,53.7809768 89.5553035,53.9802825 90.0653733,53.8688241 Z" id="Path" fill="#8E6E35"></path>
            <path d="M4.35662419,75.1688412 C4.08474897,74.8559937 3.36842896,74.5171045 2.62085891,74.5566879 C1.87363609,74.5962712 1.29585785,74.9691882 1.33231622,75.3598135 C1.3691218,75.7504388 2.12571963,76.076828 2.26044196,76.474745 C2.39516429,76.872662 2.28509476,77.5292597 2.67085895,77.8938433 C3.05662315,78.2577325 4.08023508,77.3230095 4.38995755,76.7438424 C4.70002724,76.1646753 4.78683287,75.6643277 4.35662419,75.1688412 Z" id="Path" fill="#8E6E35"></path>
            <path d="M6.0496811,77.2407178 C6.11183393,76.9712731 5.84759761,76.7018285 5.46183341,76.6372451 C5.07606921,76.5726617 4.71530503,76.7372452 4.65315221,77.0066898 C4.5913466,77.2761345 4.8521107,77.5480097 5.2378749,77.6125931 C5.62329187,77.6775237 5.9878755,77.5101625 6.0496811,77.2407178 Z" id="Path" fill="#8E6E35"></path>
            <path d="M4.39655478,74.6421046 C4.6406522,74.9021743 5.1500276,74.8289103 5.52294457,74.4643267 C5.89898654,74.1039097 6.00419495,73.6063399 5.75940309,73.3525203 C5.51391678,73.0987006 5.01426361,73.1823812 4.64204109,73.5400204 C4.27294357,73.9025207 4.15315181,74.3830766 4.39655478,74.6421046 Z" id="Path" fill="#8E6E35"></path>
            <path d="M3.94238775,73.7452289 C4.1052351,73.3962703 4.01947114,73.0157144 3.77085983,72.9184921 C3.52294297,72.8226587 3.1854427,73.0157144 3.02641479,73.367798 C2.86634522,73.7184928 2.93960917,74.0882847 3.19203993,74.1927987 C3.44447068,74.2973127 3.78127651,74.0962708 3.94238775,73.7452289 Z" id="Path" fill="#8E6E35"></path>
            <path d="M6.03544498,76.1542586 C6.53405649,76.0132863 6.87468176,75.6157165 6.7934317,75.2677996 C6.71218163,74.9198826 6.24204237,74.7521742 5.74620864,74.8914104 C5.25384713,75.0355077 4.90627741,75.4143275 4.98162469,75.7594666 C5.05697197,76.1042586 5.53023624,76.2858559 6.03544498,76.1542586 Z" id="Path" fill="#8E6E35"></path>
            <path d="M53.0431215,58.3011193 C52.8837463,58.6834113 52.8990241,59.475773 53.26708,60.1275097 C53.6351358,60.7792463 54.2257613,61.1309827 54.5590949,60.9243853 C54.893123,60.7177879 54.8486785,59.8948706 55.1448593,59.5973009 C55.4413873,59.2997312 56.0785406,59.1059811 56.2334018,58.598689 C56.3879158,58.0907025 55.0948592,57.5900076 54.4389559,57.5705632 C53.782011,57.5504243 53.295205,57.6952161 53.0431215,58.3011193 Z" id="Path" fill="#000000"></path>
            <path d="M54.1452057,55.8629229 C53.8764555,55.9271591 53.752497,56.2837566 53.8660388,56.6577152 C53.9799278,57.0320211 54.2879141,57.2820213 54.5570116,57.2177851 C54.8257618,57.1532017 54.9531924,56.7986876 54.8396507,56.4243817 C54.7261089,56.0504231 54.4139559,55.7983395 54.1452057,55.8629229 Z" id="Path" fill="#000000"></path>
            <path d="M52.5535377,58.4993834 C52.6778434,58.1650081 52.3854821,57.7413967 51.8927733,57.5698687 C51.4028424,57.3934797 50.9108281,57.5205631 50.7924252,57.8528551 C50.6740224,58.185147 50.9712448,58.595564 51.4573563,58.7702169 C51.9458984,58.9393143 52.4295793,58.832717 52.5535377,58.4993834 Z" id="Path" fill="#000000"></path>
            <path d="M51.9521484,59.3052868 C51.5674258,59.3146618 51.2646478,59.5608426 51.288259,59.8264678 C51.3122173,60.0913985 51.6358287,60.3077182 52.0215929,60.293482 C52.4066626,60.280982 52.7056212,60.0507735 52.6868712,59.7782038 C52.6681212,59.5056342 52.3382598,59.2934812 51.9521484,59.3052868 Z" id="Path" fill="#000000"></path>
            <path d="M53.1785382,56.3587567 C52.8302741,55.9750758 52.322982,55.8469507 52.0472873,56.0747287 C51.7719399,56.3021594 51.8309677,56.7976459 52.1761069,57.1799379 C52.5243711,57.5566743 53.0177742,57.6993827 53.2934689,57.4785492 C53.5688163,57.2573685 53.5208996,56.7532014 53.1785382,56.3587567 Z" id="Path" fill="#000000"></path>
            <path d="M58.3417368,74.6469657 C58.4056258,75.0563411 58.8323622,75.7240499 59.4861822,76.0879391 C60.1406966,76.4518283 60.8278499,76.4431477 61.0045862,76.0928002 C61.1813224,75.7424527 60.7139609,75.0636327 60.8111832,74.6549519 C60.9087528,74.2466182 61.3511142,73.7487011 61.218128,73.235159 C61.0844474,72.721617 59.7209046,72.9691866 59.1507652,73.2948813 C58.5799315,73.6209232 58.2406951,73.9983541 58.3417368,74.6469657 Z" id="Path" fill="#8E6E35"></path>
            <path d="M58.0087504,71.9917553 C57.8132642,72.1872415 57.8934726,72.5559918 58.1858339,72.8157143 C58.4781953,73.0754367 58.8715984,73.1278673 59.0670846,72.932381 C59.2625709,72.737242 59.1865292,72.3681445 58.8941678,72.108422 C58.6021537,71.8486996 58.2045839,71.7966162 58.0087504,71.9917553 Z" id="Path" fill="#8E6E35"></path>
            <path d="M58.0278477,75.0716189 C57.9590976,74.7216186 57.4886111,74.5129378 56.9792357,74.624049 C56.4691659,74.7292575 56.1153462,75.0941883 56.1879157,75.4396747 C56.2608324,75.7851611 56.7285411,75.9799529 57.234097,75.8750917 C57.7393058,75.7639805 58.0959033,75.4205775 58.0278477,75.0716189 Z" id="Path" fill="#8E6E35"></path>
            <path d="M57.9354865,76.0730085 C57.6122224,76.2816893 57.4823611,76.6497451 57.641389,76.8643286 C57.8004169,77.0775232 58.1893061,77.0931482 58.5108342,76.8796064 C58.8327094,76.6678007 58.9674318,76.3153698 58.8090983,76.0928002 C58.6507648,75.8698834 58.2587506,75.8612028 57.9354865,76.0730085 Z" id="Path" fill="#8E6E35"></path>
            <path d="M57.4434722,72.9195338 C56.9459024,72.7740476 56.4462492,72.9299505 56.3302769,73.267798 C56.2139573,73.6056455 56.5229854,73.9976597 57.017083,74.1434931 C57.5104862,74.2830766 58.0063199,74.1466181 58.1257644,73.8146734 C58.2455562,73.4823815 57.9413893,73.0771728 57.4434722,72.9195338 Z" id="Path" fill="#8E6E35"></path>
            <path d="M4.80349955,61.4948719 C5.21287488,61.5601497 5.97954216,61.3604968 6.52745926,60.8507741 C7.07537637,60.3407043 7.27919597,59.6841065 7.00072353,59.4080647 C6.72190386,59.1316755 5.93197267,59.3670924 5.57329183,59.1483422 C5.21495821,58.9292448 4.87780516,58.355286 4.34829085,58.3233416 C3.81877654,58.2913971 3.63335972,59.6653565 3.76738761,60.3080654 C3.90106827,60.9514687 4.15558236,61.3907051 4.80349955,61.4948719 Z" id="Path" fill="#8E6E35"></path>
            <path d="M2.17537245,60.9920937 C2.30106699,61.2386217 2.67641451,61.2757745 3.01356756,61.0778577 C3.35106783,60.8799408 3.52224852,60.5219544 3.3969012,60.2754265 C3.27155388,60.0292457 2.8969008,59.9879262 2.55974775,60.1854958 C2.22259471,60.3834127 2.05002512,60.7455657 2.17537245,60.9920937 Z" id="Path" fill="#8E6E35"></path>
            <path d="M5.11079146,61.9243861 C4.75662451,61.8816777 4.41287424,62.2646642 4.36113808,62.7837618 C4.30384637,63.3014705 4.54204101,63.7504292 4.89308295,63.7879293 C5.24377768,63.8254293 5.57363905,63.4407068 5.62954188,62.9271647 C5.68023636,62.4125809 5.46356952,61.9670945 5.11079146,61.9243861 Z" id="Path" fill="#8E6E35"></path>
            <path d="M6.03475053,62.3209142 C6.13370895,62.6931367 6.44343142,62.9299425 6.69655662,62.844873 C6.94829293,62.7598034 7.08336248,62.3948726 6.97919573,62.0229973 C6.87711232,61.6514692 6.58370931,61.4146635 6.32294521,61.4962608 C6.06252833,61.5782053 5.93301434,61.9486917 6.03475053,62.3209142 Z" id="Path" fill="#8E6E35"></path>
            <path d="M2.88335912,61.8160527 C2.591345,62.244178 2.58544222,62.7677896 2.87120634,62.9823731 C3.15662323,63.1973038 3.62467916,63.0240398 3.91599884,62.5993867 C4.20072129,62.1729974 4.22433242,61.6594553 3.94516553,61.4431357 C3.66634586,61.2268161 3.18683159,61.3913996 2.88335912,61.8160527 Z" id="Path" fill="#8E6E35"></path>
            <path d="M72.0917478,62.3441781 C71.7139697,62.1736919 70.921608,62.1653585 70.2591075,62.5136227 C69.5966069,62.8622341 69.2275094,63.4420957 69.4240374,63.7816793 C69.6205653,64.1212629 70.4445243,64.1014712 70.7334134,64.4066798 C71.0219553,64.7122356 71.196261,65.3545972 71.6990392,65.5240418 C72.2018174,65.6938336 72.7410539,64.4167492 72.78029,63.7611931 C72.8198734,63.1052898 72.689665,62.6146644 72.0917478,62.3441781 Z" id="Path" fill="#8E6E35"></path>
            <path d="M74.4959164,63.5188318 C74.4393191,63.2479983 74.0868883,63.1136232 73.7094575,63.2160538 C73.3320266,63.3184844 73.0729986,63.6191791 73.1292487,63.8896655 C73.1858459,64.1601518 73.5361934,64.2986936 73.9136243,64.1959157 C74.2910551,64.0938323 74.5525137,63.7893182 74.4959164,63.5188318 Z" id="Path" fill="#8E6E35"></path>
            <path d="M71.9080671,61.8490388 C72.2382757,61.9834139 72.6705677,61.7038998 72.856679,61.2163994 C73.0476514,60.732024 72.9354985,60.2361903 72.6066788,60.1080652 C72.2778591,59.9799401 71.8587615,60.2646626 71.6702197,60.7452185 C71.4861918,61.2285522 71.578553,61.7153582 71.9080671,61.8490388 Z" id="Path" fill="#8E6E35"></path>
            <path d="M71.1202193,61.2240383 C71.1226498,60.8389686 70.8854969,60.5292461 70.6191772,60.5448711 C70.353552,60.5611906 70.1278574,60.8778575 70.1306351,61.2639689 C70.1316768,61.6493859 70.3528575,61.9549417 70.6257744,61.9441778 C70.8986913,61.9337611 71.1209137,61.6101497 71.1202193,61.2240383 Z" id="Path" fill="#8E6E35"></path>
            <path d="M74.0289022,62.537581 C74.4229997,62.2014697 74.5660554,61.6976498 74.3466107,61.4153579 C74.1275133,61.1334133 73.6302907,61.1775105 73.2379293,61.5111913 C72.8511234,61.8479972 72.6938316,62.3372337 72.9063318,62.6191783 C73.118832,62.901123 73.6247352,62.8684841 74.0289022,62.537581 Z" id="Path" fill="#8E6E35"></path>
            <path d="M20.6160122,52.2334061 C20.233373,52.392434 19.6854559,52.9653512 19.4871919,53.6868795 C19.2885806,54.4087551 19.4597613,55.0743806 19.8420532,55.1629224 C20.2243452,55.2518113 20.7729568,54.6368803 21.1927488,54.6344497 C21.612888,54.6327136 22.2014301,54.9445194 22.6687916,54.6934775 C23.1361531,54.4420885 22.5722638,53.175768 22.1208745,52.6993787 C21.669138,52.2219478 21.2219155,51.9816698 20.6160122,52.2334061 Z" id="Path" fill="#8E6E35"></path>
            <path d="M23.1163614,51.2809748 C22.8802501,51.1372247 22.541361,51.3028498 22.3580275,51.6483362 C22.1750412,51.9938226 22.2170551,52.3882674 22.4535137,52.5320175 C22.6892777,52.6761148 23.029903,52.5146564 23.2128893,52.16917 C23.3962228,51.8236836 23.3524727,51.4250722 23.1163614,51.2809748 Z" id="Path" fill="#8E6E35"></path>
            <path d="M20.128859,52.0292393 C20.4524704,51.8795864 20.5441371,51.373336 20.3153175,50.9042384 C20.0924007,50.4337519 19.6538587,50.17646 19.3354556,50.3288907 C19.0173998,50.4813214 18.9389275,50.9820162 19.1604555,51.4483361 C19.3878862,51.9129198 19.8059421,52.1781978 20.128859,52.0292393 Z" id="Path" fill="#8E6E35"></path>
            <path d="M19.1340666,52.1768089 C18.8545525,51.9118781 18.4663577,51.8733364 18.2958715,52.0785449 C18.1264269,52.2834062 18.203163,52.6646565 18.4868438,52.9268095 C18.7687885,53.1893097 19.1430944,53.2365319 19.3219139,53.0302818 C19.5007335,52.8233372 19.4163585,52.4403507 19.1340666,52.1768089 Z" id="Path" fill="#8E6E35"></path>
            <path d="M22.0812911,50.9514607 C22.1049023,50.4340991 21.8351104,49.9854877 21.4792073,49.9525015 C21.1236515,49.9198626 20.8160124,50.3129185 20.7913596,50.827155 C20.7726095,51.3396554 21.0226097,51.7889613 21.3733045,51.8268086 C21.7246936,51.8643086 22.0462217,51.4726416 22.0812911,50.9514607 Z" id="Path" fill="#8E6E35"></path>
            <path d="M71.4507751,32.6521405 C71.8604976,32.5899876 72.5299426,32.166029 72.8962624,31.5135979 C73.2629293,30.8608196 73.2573738,30.173319 72.9077207,29.9955411 C72.5580676,29.8170688 71.8771643,30.2819997 71.4691779,30.1830413 C71.0608442,30.0837356 70.5653577,29.6392908 70.0511212,29.7701937 C69.5368847,29.9014438 69.7788988,31.2660283 70.1025101,31.8375565 C70.4257743,32.4094319 70.8018162,32.7504044 71.4507751,32.6521405 Z" id="Path" fill="#8E6E35"></path>
            <path d="M68.794523,32.9740157 C68.9889676,33.1705437 69.3580651,33.0917242 69.6191764,32.8004045 C69.8799405,32.5090848 69.9341072,32.1160289 69.7396626,31.919501 C69.545218,31.7233203 69.1757733,31.7979731 68.9146619,32.0892928 C68.6538979,32.379918 68.6000784,32.7774878 68.794523,32.9740157 Z" id="Path" fill="#8E6E35"></path>
            <path d="M71.8743865,32.9677657 C71.524039,33.0347797 71.313275,33.5045717 71.4219556,34.0146416 C71.5254279,34.5250586 71.8889699,34.8802673 72.2348035,34.8090866 C72.5802899,34.7375588 72.777165,34.2708918 72.67404,33.7646414 C72.5653593,33.2590854 72.2236924,32.9007518 71.8743865,32.9677657 Z" id="Path" fill="#8E6E35"></path>
            <path d="M72.8750818,33.0642936 C73.0827208,33.3882522 73.4500822,33.5195023 73.665013,33.361516 C73.8792493,33.2035298 73.8962632,32.8149878 73.6841102,32.4920709 C73.4736934,32.1695012 73.121957,32.03339 72.8983457,32.1906818 C72.6750816,32.3479736 72.6646649,32.740335 72.8750818,33.0642936 Z" id="Path" fill="#8E6E35"></path>
            <path d="M69.7198709,33.5434606 C69.5719541,34.0399888 69.7261209,34.5403364 70.063274,34.6580449 C70.4007742,34.7754061 70.7938301,34.4681141 70.9420941,33.974711 C71.0834137,33.481655 70.9493858,32.9854741 70.6177883,32.8642934 C70.2858436,32.74346 69.8795933,33.046238 69.7198709,33.5434606 Z" id="Path" fill="#8E6E35"></path>
            <path d="M87.8605104,3.85385354 C88.0056494,4.2420483 88.5584277,4.81010431 89.2723171,5.03406282 C89.9865538,5.25836856 90.6580821,5.11114622 90.7605128,4.73232647 C90.8629434,4.35350672 90.267804,3.78302015 90.2806513,3.36322815 C90.2938457,2.94343615 90.6264849,2.36669958 90.3924569,1.89031031 C90.1580817,1.41426826 88.8723168,1.93232423 88.3799553,2.36635235 C87.8865521,2.8007277 87.6306491,3.23926972 87.8605104,3.85385354 Z" id="Path" fill="#000000"></path>
            <path d="M86.998357,1.32086541 C86.8455791,1.55176837 86.9993986,1.89656031 87.3379406,2.09169936 C87.6768297,2.28718562 88.0726634,2.2590606 88.2247468,2.02850486 C88.3768303,1.7976019 88.2278718,1.45176829 87.8889827,1.25628202 C87.5504407,1.06079575 87.1504404,1.08996244 86.998357,1.32086541 Z" id="Path" fill="#000000"></path>
            <path d="M87.6386353,4.33336782 C87.5011352,4.00454811 86.9980097,3.8948258 86.520926,4.10663152 C86.0431479,4.31253447 85.7705782,4.74170148 85.9112033,5.06531285 C86.0521757,5.38892422 86.5493983,5.48510485 87.0237042,5.28024357 C87.4959268,5.06982674 87.7761354,4.66114586 87.6386353,4.33336782 Z" id="Path" fill="#000000"></path>
            <path d="M87.7507881,5.33267417 C87.4761351,5.60246605 87.4233573,5.9889247 87.6223158,6.16670262 C87.8209271,6.34378609 88.2049552,6.2805916 88.4771776,6.00628582 C88.7494,5.73406338 88.810164,5.36149364 88.6101638,5.17538238 C88.4101637,4.98927112 88.0243995,5.06010451 87.7507881,5.33267417 Z" id="Path" fill="#000000"></path>
            <path d="M86.63169,2.34343567 C86.1153702,2.30142175 85.6573837,2.55489417 85.6118975,2.90940834 C85.5660642,3.26392252 85.9476617,3.58510333 86.4608565,3.62850614 C86.9730097,3.66531173 87.430649,3.43163098 87.4809962,3.08232515 C87.5309963,2.73267209 87.1511349,2.39725516 86.63169,2.34343567 Z" id="Path" fill="#000000"></path>
            <path d="M21.8514299,4.19239548 C22.2410135,4.05107592 22.8142778,3.50420049 23.0458753,2.79239436 C23.2774727,2.08058824 23.1368475,1.40767103 22.7594167,1.30176817 C22.3816386,1.19517086 21.804902,1.78440744 21.3854573,1.76739354 C20.9656653,1.75003242 20.3924009,1.41114326 19.9139283,1.64065733 C19.4354557,1.86982418 19.9403172,3.16079743 20.3694842,3.65767283 C20.7986512,4.15524267 21.2344155,4.41600677 21.8514299,4.19239548 Z" id="Path" fill="#8E6E35"></path>
            <path d="M19.3094139,5.02850726 C19.538928,5.18302127 19.8854561,5.03336838 20.0840673,4.69656255 C20.2830258,4.36010395 20.2587202,3.96392308 20.0295534,3.80940906 C19.8003865,3.65489505 19.4528168,3.80038128 19.2542056,4.1371871 C19.0552471,4.47364571 19.0802471,4.87399325 19.3094139,5.02850726 Z" id="Path" fill="#8E6E35"></path>
            <path d="M22.3285136,4.41913177 C21.998305,4.55315966 21.8837215,5.05524339 22.0903189,5.53406322 C22.2913608,6.01427194 22.71775,6.29135549 23.0427503,6.15385538 C23.3674033,6.01635527 23.4691395,5.5198271 23.2691393,5.04378505 C23.0632364,4.56913189 22.6580277,4.28475667 22.3285136,4.41913177 Z" id="Path" fill="#8E6E35"></path>
            <path d="M23.3288616,4.31739558 C23.5958757,4.59447914 23.9819871,4.6510764 24.1618484,4.45420125 C24.340668,4.25732609 24.2812929,3.87260356 24.0097649,3.59795056 C23.7403203,3.32260312 23.3687922,3.25801973 23.1805976,3.45628378 C22.992403,3.65420061 23.0590697,4.04100647 23.3288616,4.31739558 Z" id="Path" fill="#8E6E35"></path>
            <path d="M20.328512,5.4055909 C20.2809425,5.92156353 20.529901,6.38198057 20.884068,6.43093894 C21.2378877,6.48024453 21.5632352,6.10177201 21.6114991,5.58892438 C21.653513,5.07781286 21.4246934,4.61774304 21.0757348,4.56392356 C20.7267762,4.51010407 20.3875398,4.88649326 20.328512,5.4055909 Z" id="Path" fill="#8E6E35"></path>
            <path d="M37.5139424,17.7257396 C37.9142899,17.6198368 38.5344293,17.1260864 38.8285268,16.4378914 C39.122277,15.7493492 39.0427631,15.0667097 38.6760961,14.9271263 C38.3090819,14.7875428 37.6823453,15.3229599 37.2660255,15.2687932 C36.8497057,15.2135849 36.3087331,14.8253901 35.8115105,15.0111541 C35.3146351,15.1969182 35.7024826,16.527822 36.085469,17.0608086 C36.4684554,17.5948368 36.8792197,17.8934481 37.5139424,17.7257396 Z" id="Path" fill="#000000"></path>
            <path d="M34.9076903,18.3316429 C35.1219266,18.5062958 35.4806074,18.3878929 35.7083854,18.0701844 C35.9365106,17.7524758 35.9479689,17.3559477 35.7333854,17.181642 C35.5191491,17.0073363 35.1597738,17.1215725 34.9319959,17.4389339 C34.7035235,17.7566424 34.6931068,18.1573372 34.9076903,18.3316429 Z" id="Path" fill="#000000"></path>
            <path d="M37.9688039,17.9937954 C37.6278314,18.0983094 37.4688035,18.5878931 37.631998,19.0830324 C37.789637,19.5795606 38.1892901,19.8934497 38.5254015,19.7854635 C38.8611657,19.6774773 39.0066519,19.1920603 38.8500546,18.700046 C38.6875544,18.2090734 38.3087347,17.8896287 37.9688039,17.9937954 Z" id="Path" fill="#000000"></path>
            <path d="M38.9743602,17.9819898 C39.2156799,18.2816429 39.5948468,18.3726152 39.791722,18.1924067 C39.9872083,18.0121982 39.9625555,17.6240034 39.7167219,17.3260865 C39.4729717,17.0278224 39.1083881,16.9306001 38.9035268,17.1108086 C38.6983183,17.2913643 38.7302628,17.6823368 38.9743602,17.9819898 Z" id="Path" fill="#000000"></path>
            <path d="M35.8889411,18.7983099 C35.7955382,19.3076854 36.0024828,19.7885885 36.350747,19.8691441 C36.698664,19.9496998 37.0563031,19.6017828 37.1504004,19.0955324 C37.2379005,18.5899764 37.0510948,18.1111566 36.7083862,18.0264343 C36.3656776,17.941712 35.9938023,18.286504 35.8889411,18.7983099 Z" id="Path" fill="#000000"></path>
            <path d="M50.9337459,89.2598246 C50.9344392,88.8455882 50.6170779,88.1191987 50.0278413,87.6580873 C49.4382575,87.1966286 48.7577014,87.0980174 48.5288818,87.4164204 C48.2997149,87.7348234 48.655618,88.4782268 48.4958956,88.8667688 C48.3354788,89.2553108 47.8212423,89.6778805 47.8726312,90.206006 C47.9243674,90.7341314 49.3101324,90.7018397 49.9236745,90.4688534 C50.5382584,90.2362143 50.9323559,89.9160752 50.9337459,89.2598246 Z" id="Path" fill="#8E6E35"></path>
            <path d="M50.8486753,91.9341323 C51.0722866,91.7716322 51.0504115,91.3948958 50.8021475,91.0928122 C50.5538834,90.7907286 50.1736747,90.6775341 49.9500634,90.8400342 C49.7264522,91.0025344 49.7438133,91.3789236 49.9920774,91.6810071 C50.2399942,91.9830907 50.625064,92.0966325 50.8486753,91.9341323 Z" id="Path" fill="#8E6E35"></path>
            <path d="M51.310134,88.8893382 C51.3229812,89.2455885 51.7552732,89.5251026 52.276107,89.4948943 C52.7962463,89.4705887 53.2024966,89.1646857 53.184441,88.8126021 C53.1667327,88.4601712 52.7351351,88.194546 52.2191625,88.219546 C51.7028426,88.2501016 51.2969395,88.5337824 51.310134,88.8893382 Z" id="Path" fill="#8E6E35"></path>
            <path d="M51.5570092,87.9143375 C51.9090928,87.7587818 52.0945096,87.4153787 51.9708984,87.1789202 C51.8472872,86.9435033 51.4656897,86.8674616 51.1146477,87.0282256 C50.7636058,87.1876008 50.5757584,87.5143371 50.6972863,87.7587818 C50.8188141,88.0035736 51.2049256,88.0733654 51.5570092,87.9143375 Z" id="Path" fill="#8E6E35"></path>
            <path d="M51.5518008,91.1060067 C52.020204,91.3271874 52.53826,91.2511457 52.7056212,90.9355204 C52.8729824,90.6198952 52.628885,90.1844782 52.1639541,89.9636447 C51.6979815,89.7490611 51.1872172,89.8063529 51.0170782,90.1157281 C50.8472864,90.4251034 51.0847866,90.8726732 51.5518008,91.1060067 Z" id="Path" fill="#8E6E35"></path>
            <path d="M21.1371932,71.4181437 C20.8785124,71.7421023 20.6753872,72.5080751 20.8496929,73.2358535 C21.0243459,73.9636319 21.495874,74.4643267 21.8733049,74.3573822 C22.251083,74.2507849 22.4344164,73.447312 22.8014306,73.2424507 C23.1684448,73.0379367 23.8340703,73.0271728 24.122265,72.5816863 C24.4104597,72.1358526 23.3055977,71.2990464 22.6799027,71.0997407 C22.0538606,70.8993933 21.5462213,70.9052961 21.1371932,71.4181437 Z" id="Path" fill="#000000"></path>
            <path d="M22.8674029,69.3771699 C22.5910138,69.3650171 22.3739997,69.6736979 22.3802497,70.0646704 C22.3868469,70.4556429 22.6142777,70.7809904 22.8903196,70.792796 C23.1663615,70.8046015 23.3868477,70.4990457 23.3805977,70.1080732 C23.3743477,69.7174479 23.1434448,69.3889754 22.8674029,69.3771699 Z" id="Path" fill="#000000"></path>
            <path d="M20.6118455,71.4740465 C20.823304,71.1872407 20.6587206,70.6993931 20.2323313,70.3990457 C19.8097616,70.0945315 19.3014278,70.0813371 19.0965665,70.3681429 C18.891358,70.6552959 19.0639276,71.1316851 19.4833724,71.4330743 C19.9066366,71.7302967 20.4010815,71.7605051 20.6118455,71.4740465 Z" id="Path" fill="#000000"></path>
            <path d="M19.8118449,72.0837692 C19.4392751,71.9865469 19.0805943,72.1400193 19.030247,72.4021723 C18.9805942,72.6636308 19.2319833,72.9605061 19.6069836,73.0528672 C19.9809422,73.1466173 20.3312897,73.0073811 20.3882342,72.740367 C20.4451787,72.4730057 20.186498,72.178561 19.8118449,72.0837692 Z" id="Path" fill="#000000"></path>
            <path d="M21.8014298,69.5882811 C21.5726102,69.1233502 21.1194848,68.86085 20.792054,69.0035584 C20.4649704,69.1469613 20.3851092,69.6396701 20.6118455,70.1018232 C20.8430957,70.5598097 21.2785127,70.8327266 21.6042074,70.6962681 C21.9295549,70.5594625 22.0222633,70.0611982 21.8014298,69.5882811 Z" id="Path" fill="#000000"></path>
            <path d="M33.3448418,89.1900329 C33.7590783,89.1945468 34.4882455,88.8841299 34.9549126,88.29906 C35.4219268,87.7139901 35.5271352,87.0348229 35.2108155,86.8028782 C34.8944958,86.5702392 34.1476202,86.919545 33.7608144,86.755656 C33.3740085,86.591767 32.9562998,86.0740582 32.4278272,86.1198916 C31.8990073,86.1667666 31.9181046,87.5528788 32.1451881,88.1685043 C32.3722716,88.7851715 32.6885913,89.182394 33.3448418,89.1900329 Z" id="Path" fill="#8E6E35"></path>
            <path d="M30.6712286,89.0796162 C30.8316454,89.3046163 31.2083818,89.2865608 31.5128959,89.0410745 C31.81741,88.7955882 31.9340768,88.416074 31.77366,88.1910738 C31.6135904,87.9660736 31.236854,87.9799625 30.9326871,88.2254488 C30.628173,88.4705879 30.5108118,88.8542688 30.6712286,89.0796162 Z" id="Path" fill="#8E6E35"></path>
            <path d="M33.711856,89.5695471 C33.3552585,89.5792693 33.0715777,90.0087836 33.096925,90.5299646 C33.1163694,91.0504511 33.4181058,91.4594792 33.7705366,91.4448958 C34.1233147,91.4303125 34.3927593,91.0011455 34.3726204,90.4851728 C34.346926,89.9685058 34.0670646,89.5598249 33.711856,89.5695471 Z" id="Path" fill="#8E6E35"></path>
            <path d="M34.684079,89.8261445 C34.8365097,90.179617 35.1781766,90.3681589 35.4156768,90.2469782 C35.6524826,90.1254503 35.7319965,89.7445473 35.5743575,89.3917692 C35.4188018,89.0396856 35.0938016,88.848366 34.847968,88.9678105 C34.6021345,89.0872551 34.5285233,89.472672 34.684079,89.8261445 Z" id="Path" fill="#8E6E35"></path>
            <path d="M31.492757,89.7903806 C31.2667152,90.2567004 31.338243,90.7754509 31.6521321,90.9459371 C31.9663685,91.1164234 32.4038689,90.8761454 32.6292163,90.4132978 C32.8483137,89.9494085 32.7958831,89.438297 32.4882439,89.265033 C32.1802576,89.0921162 31.7302572,89.3254497 31.492757,89.7903806 Z" id="Path" fill="#8E6E35"></path>
            <path d="M67.8709111,90.3903811 C68.0042446,90.7830898 68.5396616,91.3674652 69.2462594,91.6132988 C69.9532044,91.8591323 70.6292467,91.7327433 70.7427884,91.3570485 C70.8566774,90.981701 70.2795936,90.3935061 70.3052881,89.9744086 C70.3313297,89.5546165 70.68133,88.9886439 70.4618854,88.5056574 C70.2424408,88.0223237 68.9413981,88.5007963 68.4358421,88.9195466 C67.9295917,89.3386442 67.6601471,89.7692001 67.8709111,90.3903811 Z" id="Path" fill="#8E6E35"></path>
            <path d="M67.0868827,87.8323929 C66.9278548,88.0580876 67.070216,88.4077406 67.4028552,88.6132964 C67.7354943,88.8188521 68.1320224,88.8028798 68.2910503,88.5771852 C68.4500782,88.3511434 68.3118837,88.0004486 67.9792445,87.7948929 C67.6469526,87.58899 67.2462578,87.6063511 67.0868827,87.8323929 Z" id="Path" fill="#8E6E35"></path>
            <path d="M67.6347998,90.8629509 C67.5070219,90.5299646 67.0080632,90.4049645 66.5247295,90.6018396 C66.0403541,90.7931592 65.7549372,91.2139929 65.8858401,91.5417709 C66.016743,91.8692017 66.5108406,91.9806602 66.9910493,91.7903822 C67.4695219,91.5945487 67.7622305,91.1948956 67.6347998,90.8629509 Z" id="Path" fill="#8E6E35"></path>
            <path d="M67.7160499,91.8650351 C67.4334108,92.1264936 67.3688274,92.5112161 67.5622303,92.6948968 C67.7556332,92.8778831 68.1410502,92.8264942 68.4212588,92.560869 C68.7021618,92.2966326 68.7740368,91.9268407 68.5799395,91.7344794 C68.3858421,91.5424654 67.9979945,91.601146 67.7160499,91.8650351 Z" id="Path" fill="#8E6E35"></path>
            <path d="M66.6893129,88.8435049 C66.174382,88.7851715 65.7087566,89.024755 65.6525066,89.3775331 C65.5962565,89.7303111 65.9677846,90.0632975 66.4795906,90.1223253 C66.9900076,90.1747559 67.4545913,89.9553113 67.5153553,89.6073944 C67.5761192,89.2598246 67.2066745,88.9129494 66.6893129,88.8435049 Z" id="Path" fill="#8E6E35"></path>
            <path d="M71.8365393,17.7660175 C72.2004285,17.9646287 72.9900124,18.0323371 73.6764713,17.7347674 C74.3632774,17.4368505 74.7747361,16.8861556 74.6042498,16.5326831 C74.4337636,16.1792106 73.6108463,16.1371967 73.3455683,15.811502 C73.0809847,15.4854601 72.954943,14.8316401 72.4664009,14.6246955 C71.9778588,14.4177509 71.344525,15.650738 71.2559833,16.3014329 C71.1674415,16.9524751 71.2604972,17.4517811 71.8365393,17.7660175 Z" id="Path" fill="#8E6E35"></path>
            <path d="M69.5271624,16.4146275 C69.5629264,16.688586 69.9045933,16.8493501 70.2886214,16.7753917 C70.6726495,16.7014333 70.9535525,16.4208775 70.9177886,16.1469189 C70.8816774,15.8729604 70.542441,15.7090714 70.1584129,15.7830298 C69.7747321,15.8562937 69.4910513,16.1403217 69.5271624,16.4146275 Z" id="Path" fill="#8E6E35"></path>
            <path d="M71.98272,18.2736567 C71.6632753,18.1149761 71.2111916,18.3611568 70.9889692,18.8333794 C70.7622329,19.3021298 70.8368857,19.804908 71.1549415,19.9576859 C71.4733446,20.1097693 71.912581,19.8573386 72.1368867,19.3924076 C72.3563314,18.9236573 72.301123,18.431643 71.98272,18.2736567 Z" id="Path" fill="#8E6E35"></path>
            <path d="M72.7212622,18.9562962 C72.6900122,19.339977 72.9032068,19.6667134 73.1698737,19.6708801 C73.4358461,19.6746995 73.6848047,19.375741 73.7111936,18.990324 C73.7389714,18.6059487 73.5410545,18.2847679 73.2681377,18.2750456 C72.9952208,18.2649762 72.7497345,18.5708792 72.7212622,18.9562962 Z" id="Path" fill="#8E6E35"></path>
            <path d="M69.9191766,17.4278227 C69.5011208,17.7337258 69.3205651,18.2253928 69.5181347,18.5229625 C69.715357,18.8208794 70.214663,18.813935 70.6309828,18.5108097 C71.0420942,18.203865 71.2354971,17.727823 71.0445248,17.4306005 C70.8538996,17.1337253 70.347302,17.1285169 69.9191766,17.4278227 Z" id="Path" fill="#8E6E35"></path>
            <path d="M71.6747336,47.9802777 C71.4917473,47.6084024 70.8854969,47.0983326 70.1528574,46.9459019 C69.4198707,46.7938185 68.7660507,47.0070131 68.7018146,47.3941662 C68.6375784,47.780972 69.2865372,48.289653 69.3153567,48.7087505 C69.343829,49.1278481 69.0702176,49.7344458 69.3504262,50.1851406 C69.6306347,50.6358354 70.8587607,49.9927793 71.3056361,49.5118762 C71.7532059,49.0306258 71.9646644,48.5688199 71.6747336,47.9802777 Z" id="Path" fill="#8E6E35"></path>
            <path d="M72.7841095,50.4150019 C72.9125818,50.17021 72.7261233,49.842432 72.3695258,49.681668 C72.0132755,49.520904 71.6219558,49.5879179 71.4934835,49.833057 C71.3650111,50.0775016 71.5476502,50.4070158 71.9042477,50.5677798 C72.260498,50.728891 72.6556372,50.6597938 72.7841095,50.4150019 Z" id="Path" fill="#8E6E35"></path>
            <path d="M71.8476504,47.481319 C72.0174422,47.7948609 72.528901,47.8538887 72.9823735,47.5959024 C73.4379295,47.3434717 73.6664019,46.8893046 73.4941795,46.5813183 C73.3219571,46.2733319 72.8170956,46.2268041 72.3660536,46.477846 C71.9167477,46.7340962 71.678553,47.1684715 71.8476504,47.481319 Z" id="Path" fill="#8E6E35"></path>
            <path d="M71.6372336,46.4979849 C71.8837615,46.2021513 71.8979977,45.8122204 71.6820253,45.6549287 C71.4667473,45.4986785 71.0910526,45.5997203 70.8476496,45.8997205 C70.6035522,46.1976374 70.5802883,46.5740266 70.7976496,46.7393045 C71.0153581,46.9049297 71.3920945,46.796249 71.6372336,46.4979849 Z" id="Path" fill="#8E6E35"></path>
            <path d="M73.0473041,49.3611816 C73.5653601,49.3518066 73.995916,49.0538897 74.0059855,48.696945 C74.0164021,48.339653 73.604249,48.0577084 73.0893181,48.0656945 C72.5768177,48.0799306 72.1441784,48.3577086 72.1289006,48.7104867 C72.1139701,49.0629175 72.5250815,49.3590983 73.0473041,49.3611816 Z" id="Path" fill="#8E6E35"></path>
            <path d="M3.01356756,30.5580416 C3.27815111,30.2385969 3.49516517,29.4767907 3.33405393,28.7458873 C3.17259547,28.014984 2.71044232,27.5056086 2.33092813,27.6056087 C1.95141393,27.7056087 1.75314989,28.5056094 1.3830107,28.7035262 C1.01217707,28.901443 0.34655154,28.9000541 0.0500235248,29.3403323 C-0.246157268,29.7806104 0.843426937,30.6375555 1.46530243,30.8483196 C2.08752515,31.0597781 2.59516445,31.0635975 3.01356756,30.5580416 Z" id="Path" fill="#8E6E35"></path>
            <path d="M1.24655226,32.567071 C1.52224692,32.5840849 1.74516377,32.2792235 1.74585984,31.888251 C1.74655266,31.4972784 1.5250247,31.1681115 1.24898282,31.1510976 C0.973288152,31.1340837 0.747593527,31.4358201 0.746895474,31.8267926 C0.745857415,32.2177651 0.970510372,32.5500571 1.24655226,32.567071 Z" id="Path" fill="#8E6E35"></path>
            <path d="M3.53960965,30.5115138 C3.32294281,30.7945001 3.47884571,31.2851255 3.89967938,31.5934591 C4.3166936,31.9052649 4.8243329,31.9281816 5.03474973,31.644848 C5.24516657,31.3615144 5.08093033,30.8823474 4.66738833,30.5733194 C4.24933244,30.268458 3.75592927,30.2288746 3.53960965,30.5115138 Z" id="Path" fill="#8E6E35"></path>
            <path d="M4.35072141,29.9167216 C4.72120782,30.0205411 5.08266644,29.873666 5.13787482,29.6125547 C5.19238875,29.3521378 4.94655522,29.0507487 4.57329103,28.9514431 C4.20141573,28.8507485 3.84829045,28.9833875 3.78613762,29.2497072 C3.72467924,29.5156796 3.97815167,29.8153326 4.35072141,29.9167216 Z" id="Path" fill="#8E6E35"></path>
            <path d="M2.31599756,32.3754041 C2.53648385,32.8441545 2.98440087,33.1153353 3.31460947,32.9781824 C3.64447084,32.8410295 3.73301258,32.3497097 3.51495685,31.8833899 C3.29204001,31.4212367 2.86148411,31.1406809 2.53370607,31.2712366 C2.2055808,31.4017922 2.10384461,31.8983204 2.31599756,32.3754041 Z" id="Path" fill="#8E6E35"></path>
            <path d="M54.896248,4.09413151 C54.588956,4.37225674 54.264303,5.09517398 54.3188169,5.84170236 C54.3733309,6.58823073 54.757359,7.15837008 55.1469426,7.1139256 C55.5368735,7.06982834 55.8483321,6.30663328 56.2434713,6.16392484 C56.6386105,6.02191083 57.2972915,6.11878591 57.6538891,5.72573004 C58.0104866,5.33267417 57.0552775,4.32781226 56.4705548,4.02989535 C55.8851376,3.731284 55.3834011,3.65420061 54.896248,4.09413151 Z" id="Path" fill="#000000"></path>
            <path d="M56.934444,2.36044957 C56.6636105,2.3038523 56.3993742,2.57329696 56.3424297,2.96010283 C56.2854852,3.34690869 56.4573603,3.70454787 56.7278466,3.76114514 C56.998333,3.8177424 57.2653471,3.55142275 57.3222916,3.1649641 C57.3795833,2.77815824 57.2049304,2.41669962 56.934444,2.36044957 Z" id="Path" fill="#000000"></path>
            <path d="M54.3691642,4.0646176 C54.6240255,3.81565907 54.5410393,3.30767255 54.1684696,2.94204726 C53.8011082,2.57329696 53.301455,2.47781078 53.0528437,2.72781098 C52.8038852,2.97781118 52.897288,3.47607546 53.2622189,3.84100631 C53.6320108,4.20281216 54.1146501,4.31322891 54.3691642,4.0646176 Z" id="Path" fill="#000000"></path>
            <path d="M53.480969,4.53649298 C53.1292327,4.38059008 52.7500657,4.47364571 52.6580517,4.72434035 C52.5670794,4.97434055 52.7667324,5.30802137 53.121941,5.45975761 C53.4754135,5.61288273 53.8438166,5.53232711 53.9434694,5.27781302 C54.0431223,5.02329892 53.835136,4.69065977 53.480969,4.53649298 Z" id="Path" fill="#000000"></path>
            <path d="M55.8483321,2.39586627 C55.6976375,1.90037976 55.2931233,1.5677406 54.9469424,1.65593512 C54.6007616,1.74412963 54.4424281,2.2173939 54.5910394,2.71044985 C54.7452062,3.19968635 55.1306231,3.53961718 55.4743734,3.45767267 C55.8174292,3.37538094 55.9896516,2.89899167 55.8483321,2.39586627 Z" id="Path" fill="#000000"></path>
            <path d="M18.087538,88.3671156 C18.054899,87.9539208 17.6798987,87.2556564 17.0552455,86.8435033 C16.430245,86.4316974 15.7441333,86.3882946 15.5417026,86.7237115 C15.3389246,87.0598229 15.7538555,87.7719762 15.6257304,88.1719766 C15.4972581,88.5719769 15.0191327,89.0348245 15.1128828,89.5570471 C15.2069801,90.0792697 16.5854534,89.9355196 17.1785094,89.6539222 C17.7722599,89.3723247 18.1392741,89.0212828 18.087538,88.3671156 Z" id="Path" fill="#000000"></path>
            <path d="M18.2187881,91.03934 C18.4285104,90.8594787 18.3760799,90.4858673 18.1045519,90.2046171 C17.8326766,89.9237141 17.4441347,89.8417696 17.2344123,90.0216308 C17.0246899,90.2014921 17.0729538,90.5751035 17.3444818,90.8563537 C17.6160098,91.1376039 18.0087184,91.2195484 18.2187881,91.03934 Z" id="Path" fill="#000000"></path>
            <path d="M18.4326771,87.9671153 C18.474691,88.3212822 18.9278164,88.5650324 19.4444835,88.4931574 C19.9608033,88.4264906 20.3413592,88.0893376 20.2948314,87.7393373 C20.2486508,87.3896843 19.7969143,87.159823 19.2847611,87.2264897 C18.7729552,87.2983647 18.3910104,87.61399 18.4326771,87.9671153 Z" id="Path" fill="#000000"></path>
            <path d="M18.6003856,86.975795 C18.9385803,86.7917671 19.0958721,86.4348224 18.9535109,86.2091278 C18.8111496,85.9844748 18.424691,85.9393359 18.087538,86.1282249 C17.7507321,86.3150306 17.5899681,86.6563503 17.7309404,86.8900311 C17.8719128,87.124059 18.2621909,87.1622535 18.6003856,86.975795 Z" id="Path" fill="#000000"></path>
            <path d="M18.8528163,90.1570476 C19.337539,90.3400338 19.8476088,90.2223254 19.9889284,89.8942002 C20.1302479,89.5660749 19.8517755,89.1518384 19.3705251,88.9691994 C18.8885803,88.7928104 18.384066,88.8910744 18.2396214,89.2132968 C18.0951768,89.5355193 18.3680937,89.962603 18.8528163,90.1570476 Z" id="Path" fill="#000000"></path>
            <path d="M29.1226162,34.4201974 C29.1163662,34.8344339 29.4240054,35.5646428 30.0073392,36.0337404 C30.590673,36.502838 31.2694929,36.6108242 31.5028265,36.2951989 C31.73616,35.9799209 31.3903264,35.2320036 31.5552571,34.845545 C31.7208822,34.4594336 32.2406743,34.0438083 32.1962298,33.5149884 C32.1517853,32.9861685 30.7656731,33.0000574 30.1486587,33.2247104 C29.5309499,33.4490161 29.1326857,33.7639469 29.1226162,34.4201974 Z" id="Path" fill="#8E6E35"></path>
            <path d="M29.2434497,31.7472786 C29.0174078,31.9066538 29.0344217,32.2837374 29.2785191,32.588946 C29.5229638,32.8945018 29.9017835,33.0125574 30.1274781,32.8531823 C30.3531728,32.6938072 30.3403255,32.3170708 30.0962281,32.011515 C29.8524779,31.7063064 29.4691443,31.5875563 29.2434497,31.7472786 Z" id="Path" fill="#8E6E35"></path>
            <path d="M28.7413659,34.7858227 C28.7330326,34.4292252 28.30456,34.1438083 27.783379,34.1670722 C27.2632397,34.1844334 26.8528227,34.4847808 26.8660172,34.8375589 C26.8792117,35.1899897 27.307337,35.4611705 27.8233096,35.4431149 C28.3399767,35.4191566 28.7496993,35.1413786 28.7413659,34.7858227 Z" id="Path" fill="#8E6E35"></path>
            <path d="M28.4812963,35.7570041 C28.1271293,35.9083931 27.9371986,36.2486711 28.0576848,36.487213 C28.178171,36.724366 28.5587269,36.805616 28.9118522,36.6490187 C29.2649775,36.4948519 29.4573387,36.1701988 29.3389358,35.9240181 C29.220533,35.6778373 28.8354632,35.6028373 28.4812963,35.7570041 Z" id="Path" fill="#8E6E35"></path>
            <path d="M28.529213,32.5660293 C28.0635876,32.3382513 27.5448372,32.4073486 27.3733093,32.7208905 C27.2014341,33.0340852 27.439976,33.4726272 27.9021291,33.700058 C28.365324,33.9208915 28.8764355,33.8705442 29.0507412,33.5632523 C29.2246996,33.2559604 28.9934495,32.8052656 28.529213,32.5660293 Z" id="Path" fill="#8E6E35"></path>
            <path d="M76.1125844,77.9928017 C76.3920985,77.6868987 76.6466126,76.9362037 76.5212653,76.1983559 C76.3962652,75.4605081 75.9598065,74.9292576 75.5757784,75.0105077 C75.1917503,75.0914105 74.9545973,75.8809945 74.5747359,76.0605085 C74.1948745,76.2396753 73.5299434,76.2056475 73.2125821,76.6306479 C72.8948735,77.0559954 73.9410549,77.9653712 74.5518192,78.2063436 C75.1625836,78.4483577 75.6695285,78.4768299 76.1125844,77.9928017 Z" id="Path" fill="#000000"></path>
            <path d="M74.2490412,79.9125949 C74.5236942,79.9431505 74.7611944,79.6497475 74.7809861,79.2591222 C74.8007778,78.8688441 74.5959165,78.5289133 74.3212635,78.4983577 C74.0466105,78.4678021 73.8059853,78.7580801 73.7861936,79.1487054 C73.7660547,79.5389835 73.974041,79.8820394 74.2490412,79.9125949 Z" id="Path" fill="#000000"></path>
            <path d="M76.6403626,77.9719684 C76.4101541,78.2441908 76.5414042,78.7421079 76.9466128,79.0705804 C77.3476548,79.4025251 77.8539052,79.4500946 78.0778637,79.1775249 C78.3018222,78.9049553 78.1615443,78.4181493 77.7636274,78.0889824 C77.3608493,77.7643293 76.8698766,77.7004404 76.6403626,77.9719684 Z" id="Path" fill="#000000"></path>
            <path d="M77.4795994,77.4178013 C77.8445302,77.5396764 78.2129333,77.4108568 78.2806417,77.1528705 C78.3480028,76.8952314 78.1170999,76.5820367 77.749044,76.4646755 C77.3823771,76.3459254 77.023349,76.4612033 76.9486962,76.7237035 C76.8736961,76.9865509 77.112238,77.2983567 77.4795994,77.4178013 Z" id="Path" fill="#000000"></path>
            <path d="M75.3264726,79.7737059 C75.5233478,80.252873 75.9577231,80.5455816 76.2941817,80.4247481 C76.6302931,80.3042619 76.7431404,79.8181504 76.5480014,79.3410667 C76.3480012,78.8688441 75.9320287,78.5671078 75.5980006,78.681344 C75.2639726,78.7959274 75.1379308,79.2869 75.3264726,79.7737059 Z" id="Path" fill="#000000"></path>
            <path d="M39.2417215,47.5969441 C39.6243607,47.7563192 40.416028,47.7406942 41.0681119,47.3726384 C41.7198485,47.0042353 42.0712377,46.4132626 41.8646403,46.0795818 C41.6580429,45.7462482 40.8351256,45.7906926 40.5372087,45.4945119 C40.239639,45.1979838 40.0458889,44.5611778 39.5382496,44.4066638 C39.030263,44.2521498 38.5299154,45.5452063 38.510471,46.2014569 C38.4906793,46.8580546 38.6358183,47.3448606 39.2417215,47.5969441 Z" id="Path" fill="#8E6E35"></path>
            <path d="M36.8031779,46.4955543 C36.8674141,46.7643045 37.2240116,46.888263 37.5983175,46.7740268 C37.9722761,46.660485 38.2222763,46.3521514 38.1576929,46.0834012 C38.0931095,45.814651 37.7385953,45.6872203 37.3646367,45.8007621 C36.9903309,45.9146511 36.7385945,46.2268041 36.8031779,46.4955543 Z" id="Path" fill="#8E6E35"></path>
            <path d="M39.4399856,48.0861806 C39.1059575,47.9622222 38.6823461,48.2545835 38.5108182,48.7472922 C38.3344292,49.2372232 38.4615126,49.7295847 38.7941517,49.8479876 C39.1264437,49.9660432 39.5368607,49.6684735 39.7111664,49.1827093 C39.8802637,48.69382 39.7733192,48.210139 39.4399856,48.0861806 Z" id="Path" fill="#8E6E35"></path>
            <path d="M40.2462362,48.68757 C40.2556112,49.0722925 40.5014448,49.3750705 40.7677644,49.3511122 C41.0320008,49.3271538 41.2483204,49.0035424 41.2340842,48.617431 C41.221237,48.2327085 40.9913757,47.9337499 40.7184588,47.9524999 C40.4462364,47.9715972 40.2340834,48.3014585 40.2462362,48.68757 Z" id="Path" fill="#8E6E35"></path>
            <path d="M37.2993589,47.4618745 C36.915678,47.8101387 36.7879001,48.317778 37.0156781,48.5931254 C37.2431088,48.8684729 37.7385953,48.8094451 38.1208873,48.4643059 C38.4972765,48.1156945 38.639985,47.6219441 38.4191514,47.3465967 C38.1979707,47.0712492 37.6934564,47.1195132 37.2993589,47.4618745 Z" id="Path" fill="#8E6E35"></path>
            <path d="M87.8195382,35.928532 C87.4053017,35.9240181 86.6764817,36.2351294 86.2101619,36.8205466 C85.7438421,37.4063109 85.6393281,38.0858254 85.955995,38.31777 C86.2723147,38.5493674 87.0188431,38.2000616 87.4059962,38.3629089 C87.7928021,38.5264507 88.2112052,39.0445067 88.7396778,38.9976317 C89.2681505,38.9504094 89.2476643,37.5642972 89.0202336,36.9486717 C88.7924556,36.3320045 88.4757887,35.9351292 87.8195382,35.928532 Z" id="Path" fill="#8E6E35"></path>
            <path d="M90.4931514,36.036171 C90.3327346,35.8108236 89.955651,35.8295736 89.6514841,36.0754071 C89.3473172,36.3212406 89.2309976,36.7007548 89.3914144,36.925755 C89.5518312,37.1507552 89.9285676,37.1361718 90.2327346,36.8903383 C90.5369015,36.644852 90.6535682,36.2611711 90.4931514,36.036171 Z" id="Path" fill="#8E6E35"></path>
            <path d="M87.4521768,35.5490178 C87.8084271,35.5389483 88.0917606,35.1090869 88.0660662,34.5879059 C88.0459273,34.0677666 87.7438437,33.6590857 87.3914128,33.6736691 C87.0386348,33.6885996 86.7698846,34.1181139 86.7903707,34.6340865 C86.8164124,35.1507536 87.0966209,35.5590872 87.4521768,35.5490178 Z" id="Path" fill="#8E6E35"></path>
            <path d="M86.4796066,35.2938093 C86.3268287,34.9403367 85.9851617,34.7517949 85.7469671,34.87367 C85.5105086,34.9951979 85.4313418,35.376101 85.5896753,35.7285318 C85.7455782,36.0809627 86.0709257,36.2715878 86.316412,36.1521433 C86.5622455,36.0323515 86.6351622,35.6469345 86.4796066,35.2938093 Z" id="Path" fill="#8E6E35"></path>
            <path d="M89.6709286,35.3257537 C89.896276,34.8594339 89.8244009,34.3406835 89.5101645,34.1705445 C89.1959282,34.0004054 88.758775,34.2410306 88.5337749,34.7042254 C88.3150247,35.1684619 88.3681497,35.6795734 88.6761361,35.852143 C88.9841224,36.0247126 89.4337756,35.7913791 89.6709286,35.3257537 Z" id="Path" fill="#8E6E35"></path>
            <path d="M87.4105101,89.1626023 C87.3629406,89.574061 87.5962741,90.3313533 88.1299551,90.8560065 C88.6639833,91.3810069 89.3285672,91.556007 89.592109,91.2650346 C89.8559981,90.9744094 89.585859,90.1959365 89.788637,89.8278807 C89.9914149,89.460172 90.5504431,89.098019 90.5587765,88.567463 C90.5671098,88.036907 89.1865532,87.9126013 88.5504415,88.0747543 C87.9136355,88.2369072 87.4858574,88.5105185 87.4105101,89.1626023 Z" id="Path" fill="#8E6E35"></path>
            <path d="M87.7966215,86.5146836 C87.5559963,86.6507948 87.5355102,87.0275312 87.7480103,87.3556565 C87.9605105,87.6841289 88.3257886,87.8393374 88.5664138,87.702879 C88.8066918,87.5667677 88.8316918,87.191073 88.6191916,86.8629477 C88.4066914,86.5344752 88.0372467,86.3785723 87.7966215,86.5146836 Z" id="Path" fill="#8E6E35"></path>
            <path d="M86.9948847,89.4882971 C87.0219681,89.1327412 86.6240511,88.8060048 86.1032174,88.7771854 C85.5837725,88.7431576 85.1455777,89.0007967 85.1230082,89.3528803 C85.1014805,89.7053111 85.5000919,90.0178114 86.0160645,90.0511447 C86.5323844,90.0789225 86.9678014,89.8428112 86.9948847,89.4882971 Z" id="Path" fill="#8E6E35"></path>
            <path d="M86.6389817,90.4289228 C86.2719675,90.5438535 86.0490507,90.8639926 86.1452313,91.1129511 C86.2410647,91.3612152 86.6118983,91.4796181 86.9792597,91.3591319 C87.3455795,91.240729 87.5691908,90.9372565 87.4761351,90.6803119 C87.3827323,90.4237145 87.0070375,90.3108672 86.6389817,90.4289228 Z" id="Path" fill="#8E6E35"></path>
            <path d="M87.004607,87.2580869 C86.5639816,86.9855173 86.0403701,87.0025312 85.8382866,87.2973231 C85.6368975,87.592115 85.8303005,88.0521848 86.2678008,88.3244072 C86.7063428,88.5903797 87.2202321,88.5910741 87.4240518,88.3025322 C87.6278714,88.0143375 87.4424545,87.5428094 87.004607,87.2580869 Z" id="Path" fill="#8E6E35"></path>
            <path d="M41.1642925,74.8622437 C41.4309594,75.1789106 42.1424183,75.5285637 42.8903356,75.5004386 C43.6382528,75.4719664 44.2215866,75.1084244 44.1910311,74.7171047 C44.1604755,74.3257849 43.4087388,73.9879374 43.2799192,73.5882843 C43.1514469,73.188284 43.2712387,72.5334224 42.89103,72.1632832 C42.5108214,71.793144 41.4733206,72.7125892 41.1549175,73.286548 C40.83582,73.8612012 40.7417227,74.3601599 41.1642925,74.8622437 Z" id="Path" fill="#8E6E35"></path>
            <path d="M39.5024856,72.7646726 C39.4365134,73.0330756 39.696583,73.3066869 40.0813055,73.3771731 C40.4660281,73.4476592 40.8292228,73.2882841 40.8951951,73.0198811 C40.9608201,72.7514781 40.7049172,72.4757834 40.3201946,72.4049501 C39.9358193,72.3344639 39.5684579,72.4962696 39.5024856,72.7646726 Z" id="Path" fill="#8E6E35"></path>
            <path d="M41.1160286,75.3879385 C40.8760979,75.1240494 40.3656808,75.1896745 39.9872083,75.5490498 C39.6059579,75.903564 39.4927634,76.3990505 39.734083,76.6566896 C39.9754027,76.9143287 40.4764448,76.8382869 40.8538756,76.4862033 C41.2285287,76.1296058 41.3552649,75.650786 41.1160286,75.3879385 Z" id="Path" fill="#8E6E35"></path>
            <path d="M41.556654,76.2921059 C41.3885983,76.6382868 41.4684594,77.0198843 41.7156819,77.120926 C41.9622098,77.2209261 42.3024879,77.0327315 42.4667241,76.6830785 C42.632002,76.3351615 42.5646409,75.9639807 42.313599,75.8556473 C42.0629044,75.7473138 41.7229735,75.9431473 41.556654,76.2921059 Z" id="Path" fill="#8E6E35"></path>
            <path d="M39.5004023,73.8511318 C38.9997075,73.9844652 38.6531794,74.3771739 38.7292211,74.7261325 C38.8049156,75.0750911 39.2726243,75.2500912 39.7705414,75.1184939 C40.2649863,74.9816882 40.6181115,74.608424 40.5479726,74.2622432 C40.4781809,73.9160624 40.0076944,73.7275206 39.5004023,73.8511318 Z" id="Path" fill="#8E6E35"></path>
            <path d="M3.88683215,16.5903221 C4.2795408,16.7229611 5.06912476,16.6524749 5.69377804,16.2403218 C6.31843132,15.8281687 6.62815379,15.2146265 6.39898694,14.8962235 C6.17016731,14.5774732 5.3521111,14.678515 5.03474973,14.4035148 C4.71738837,14.1281673 4.47988818,13.5062918 3.9632211,13.3871945 C3.44585957,13.2680972 3.0357898,14.5924038 3.06148427,15.2483071 C3.08683151,15.9049049 3.26495665,16.3805997 3.88683215,16.5903221 Z" id="Path" fill="#8E6E35"></path>
            <path d="M1.37814959,15.6594185 C1.46113576,15.9233076 1.82537217,16.0222661 2.19065024,15.8826826 C2.55592831,15.7434464 2.78440071,15.4187934 2.70141453,15.1549043 C2.61842836,14.8913624 2.25592807,14.7885845 1.89065,14.9278207 C1.52537193,15.067057 1.29551063,15.3958767 1.37814959,15.6594185 Z" id="Path" fill="#8E6E35"></path>
            <path d="M4.11877678,17.0649752 C3.77676262,16.9639335 3.37433174,17.2847671 3.23717885,17.7882397 C3.09516485,18.2892818 3.25592887,18.7715738 3.59551247,18.8667128 C3.9354433,18.9615045 4.3243325,18.6368515 4.46461039,18.1399761 C4.59967994,17.6406701 4.45974927,17.1653225 4.11877678,17.0649752 Z" id="Path" fill="#8E6E35"></path>
            <path d="M4.96426357,17.6090729 C5.00037471,17.9924065 5.26669436,18.2774762 5.53023624,18.2354623 C5.79273645,18.1927539 5.98613938,17.8552536 5.94516713,17.4712255 C5.90593099,17.0878919 5.65593079,16.8059472 5.38509724,16.8434473 C5.11461091,16.8809473 4.92572187,17.2246976 4.96426357,17.6090729 Z" id="Path" fill="#8E6E35"></path>
            <path d="M1.93995559,16.5892804 C1.58127475,16.963239 1.48891356,17.4785172 1.73474709,17.7375452 C1.98092785,17.9965732 2.47120602,17.9035176 2.82884519,17.5326839 C3.18023436,17.1590725 3.28822056,16.6569888 3.04898426,16.3972664 C2.80974795,16.1378911 2.30940033,16.2205301 1.93995559,16.5892804 Z" id="Path" fill="#8E6E35"></path>
            <path d="M19.5038585,19.8028246 C19.3538584,20.1889361 19.3882334,20.9806034 19.7719143,21.6233122 C20.1555952,22.2660211 20.754554,22.6031741 21.0830265,22.3885906 C21.4118462,22.1740071 21.34761,21.3524787 21.6364991,21.0476173 C21.9257355,20.7431032 22.5580276,20.5340752 22.7003889,20.0229637 C22.8424029,19.5118522 21.5378879,19.0424074 20.8816374,19.0385879 C20.2243452,19.034074 19.7417059,19.1910186 19.5038585,19.8028246 Z" id="Path" fill="#000000"></path>
            <path d="M20.5469149,17.3385866 C20.2795536,17.4094199 20.1642757,17.7687952 20.2871925,18.1399761 C20.409762,18.5111569 20.7239984,18.7538655 20.9910125,18.6830321 C21.2580266,18.6121987 21.3771239,18.2545595 21.2545544,17.8833787 C21.1319848,17.5121978 20.813929,17.2674059 20.5469149,17.3385866 Z" id="Path" fill="#000000"></path>
            <path d="M19.0194831,20.0128942 C19.1354555,19.6757412 18.8330247,19.2590742 18.3364965,19.0993519 C17.8423989,18.9351156 17.3531624,19.0736574 17.2430928,19.4087271 C17.1326761,19.744144 17.4396208,20.1472694 17.9298989,20.3097695 C18.4226077,20.4670613 18.9035108,20.3490056 19.0194831,20.0128942 Z" id="Path" fill="#000000"></path>
            <path d="M18.4375382,20.8330338 C18.0528157,20.8514366 17.7562877,21.104909 17.786496,21.3698398 C17.8170516,21.6344233 18.1455241,21.8427568 18.5309411,21.8191457 C18.9156636,21.7972707 19.2087194,21.5601177 19.1833722,21.2878953 C19.1580249,21.0156728 18.8233024,20.811506 18.4375382,20.8330338 Z" id="Path" fill="#000000"></path>
            <path d="M19.5924003,17.8576842 C19.2354555,17.4823367 18.7246912,17.3667116 18.4548994,17.6007395 C18.1847603,17.8351147 18.2559409,18.3292123 18.6101078,18.7028238 C18.9673998,19.0708796 19.4642752,19.2017825 19.7344143,18.9743518 C20.0045534,18.746921 19.9444839,18.2434484 19.5924003,17.8576842 Z" id="Path" fill="#000000"></path>
            <path d="M89.0730114,69.8653647 C88.6886361,70.0209204 88.1358579,70.5886292 87.9306494,71.3084214 C87.7254409,72.0282136 87.8907188,72.6955753 88.2719691,72.7875892 C88.6532194,72.8802977 89.2077337,72.2702277 89.627873,72.2719638 C90.047665,72.2736999 90.6334293,72.5910613 91.1032214,72.3445333 C91.5730134,72.0976581 91.0205824,70.8261293 90.5737071,70.3452262 C90.1264845,69.8639758 89.6813452,69.6191839 89.0730114,69.8653647 Z" id="Path" fill="#8E6E35"></path>
            <path d="M91.5823884,68.9365445 C91.347666,68.7903638 91.0066935,68.952864 90.8205823,69.2966142 C90.6341238,69.6403645 90.6730127,70.0355037 90.9077351,70.1813372 C91.1421103,70.3271706 91.4841244,70.1688372 91.6705829,69.8250869 C91.8570414,69.4813366 91.8171108,69.0823779 91.5823884,68.9365445 Z" id="Path" fill="#8E6E35"></path>
            <path d="M88.5879416,69.656684 C88.9129418,69.5101561 89.0091225,69.0046001 88.7848167,68.5334192 C88.5660666,68.0608494 88.1299551,67.799738 87.8105104,67.9490437 C87.4907185,68.0986966 87.4073851,68.5983498 87.6247464,69.0667529 C87.8480104,69.53342 88.2636358,69.8028646 88.5879416,69.656684 Z" id="Path" fill="#8E6E35"></path>
            <path d="M87.5917602,69.7948785 C87.3146767,69.5278644 86.9271764,69.485156 86.7542596,69.6889757 C86.5830789,69.892448 86.6563428,70.2743928 86.937593,70.5389763 C87.2174544,70.8042543 87.5910658,70.8549488 87.7716215,70.6500875 C87.9525244,70.4452263 87.8716216,70.0611982 87.5917602,69.7948785 Z" id="Path" fill="#8E6E35"></path>
            <path d="M90.5500959,68.5973081 C90.5785682,68.0799466 90.312943,67.6289046 89.9573871,67.5927934 C89.6021785,67.5566823 89.2907199,67.9469604 89.261206,68.4608497 C89.2379421,68.9733501 89.4834284,69.4247393 89.8344704,69.4657116 C90.1851651,69.5066838 90.5105126,69.1177946 90.5500959,68.5973081 Z" id="Path" fill="#8E6E35"></path>
            <path d="M3.6128736,2.44968575 C3.36148451,2.77919991 3.17433158,3.54899219 3.36391506,4.2729511 C3.55349855,4.99725724 4.03544338,5.48788263 4.41044368,5.37295198 C4.7857912,5.25871578 4.95280522,4.45142347 5.31495829,4.2389233 C5.6778058,4.02711757 6.34308411,4.00211755 6.62190378,3.5507283 C6.90072345,3.09933905 5.77850033,2.28544951 5.14898594,2.09899103 C4.51912432,1.91218532 4.01148503,1.92850478 3.6128736,2.44968575 Z" id="Path" fill="#8E6E35"></path>
            <path d="M5.30037495,0.372947981 C5.02398584,0.367045199 4.81322178,0.679892671 4.82780512,1.07086521 C4.84238847,1.46149052 5.07676366,1.78197689 5.35315277,1.78787967 C5.62919465,1.79412967 5.84308371,1.48405998 5.82850037,1.09308745 C5.81426425,0.702462134 5.57676406,0.379197986 5.30037495,0.372947981 Z" id="Path" fill="#8E6E35"></path>
            <path d="M3.08926207,2.51704692 C3.29447056,2.22538002 3.11981765,1.74135185 2.68717841,1.44968495 C2.25870585,1.15419861 1.75002488,1.15142083 1.55071917,1.4427405 C1.35176068,1.73406018 1.53474693,2.20663 1.9600945,2.49899135 C2.38960873,2.78718602 2.88440079,2.80767215 3.08926207,2.51704692 Z" id="Path" fill="#8E6E35"></path>
            <path d="M2.30210866,3.14274186 C1.9278028,3.05350568 1.57224696,3.21461692 1.52745526,3.47746435 C1.483358,3.73996456 1.74064988,4.03128424 2.11773351,4.11600653 C2.49308103,4.20211771 2.84065076,4.05558982 2.89203969,3.78718682 C2.94342862,3.51913105 2.67849785,3.22954749 2.30210866,3.14274186 Z" id="Path" fill="#8E6E35"></path>
            <path d="M4.23926299,0.606281501 C4.00072113,0.146211689 3.54204021,-0.106566291 3.21773439,0.0430866065 C2.89342858,0.193086726 2.82398408,0.687184344 3.0604426,1.1448236 C3.30106779,1.59794896 3.74204037,1.86149084 4.06495729,1.71843517 C4.38752699,1.57503228 4.46981873,1.07468465 4.23926299,0.606281501 Z" id="Path" fill="#8E6E35"></path>
            <path d="M44.8590871,31.1434587 C44.6177675,30.8066529 43.9354753,30.4031803 43.1879053,30.3733192 C42.439988,30.3438053 41.8302653,30.6611667 41.8306124,31.0535281 C41.8306124,31.4458895 42.553877,31.8410287 42.6514465,32.2493624 C42.7483216,32.6583905 42.5781825,33.3017938 42.92853,33.7004052 C43.2792248,34.0986694 44.3847812,33.2622104 44.7465871,32.7146405 C45.1090873,32.1667234 45.2417263,31.6764452 44.8590871,31.1434587 Z" id="Path" fill="#000000"></path>
            <path d="M46.3535328,33.3629049 C46.4403384,33.1004047 46.2021438,32.8073489 45.8240185,32.7073488 C45.4458932,32.6073488 45.0712401,32.7382517 44.9847817,33.0007519 C44.8983233,33.2629048 45.1326985,33.558044 45.5104766,33.6580441 C45.8886019,33.7583914 46.2670744,33.6254051 46.3535328,33.3629049 Z" id="Path" fill="#000000"></path>
            <path d="M44.9479761,30.622625 C45.1667263,30.9042224 45.6809628,30.8785279 46.0858242,30.549361 C46.4934635,30.2257496 46.6445052,29.7399854 46.424019,29.4646379 C46.2035327,29.1892905 45.6979767,29.2260961 45.2941569,29.5479713 C44.893115,29.8747077 44.7295732,30.3420692 44.9479761,30.622625 Z" id="Path" fill="#000000"></path>
            <path d="M44.5785314,29.6872075 C44.772976,29.3552628 44.7229759,28.968457 44.4844341,28.8486652 C44.2462394,28.7299151 43.8924197,28.8913736 43.7014473,29.2271377 C43.5097805,29.5611658 43.5486694,29.9361661 43.7899891,30.0635967 C44.0320032,30.1910274 44.3858229,30.02193 44.5785314,29.6872075 Z" id="Path" fill="#000000"></path>
            <path d="M46.4399912,32.279918 C46.9493666,32.1854734 47.3250613,31.821237 47.2764502,31.4670701 C47.227839,31.1132504 46.7750609,30.9028335 46.2688105,30.9955419 C45.7649907,31.0934587 45.3840876,31.4382506 45.4271432,31.7889453 C45.4701987,32.1392928 45.9243658,32.3639458 46.4399912,32.279918 Z" id="Path" fill="#000000"></path>
            <path d="M55.9115265,20.725742 C55.5785402,20.97227 55.1847899,21.6601178 55.1660398,22.4080351 C55.1472898,23.1562995 55.473679,23.7615084 55.8660404,23.7556056 C56.2584018,23.7497028 56.6427771,23.0205355 57.0500691,22.9170632 C57.4573611,22.8142854 58.103195,22.9750494 58.4965981,22.6191463 C58.8900012,22.2625488 58.0375699,21.1691452 57.4844445,20.8153254 C56.931319,20.4608113 56.4393047,20.335464 55.9115265,20.725742 Z" id="Path" fill="#8E6E35"></path>
            <path d="M58.109445,19.1990047 C57.8455559,19.1163658 57.5559723,19.3587271 57.4615278,19.7382413 C57.3670833,20.1177554 57.5031945,20.4906724 57.7670836,20.5729641 C58.0306255,20.6559503 58.3222924,20.4170612 58.4167369,20.037547 C58.5115286,19.6583801 58.3729868,19.2819909 58.109445,19.1990047 Z" id="Path" fill="#8E6E35"></path>
            <path d="M55.3899984,20.6448392 C55.6681236,20.4215751 55.6347902,19.9080331 55.3000677,19.5080327 C54.9702063,19.1049074 54.482706,18.9611573 54.2104835,19.185463 C53.9382611,19.410116 53.9823583,19.9149775 54.3101364,20.3139362 C54.6424283,20.710117 55.1122204,20.8670616 55.3899984,20.6448392 Z" id="Path" fill="#8E6E35"></path>
            <path d="M54.4597893,21.0274784 C54.1247196,20.8378949 53.7389554,20.8934505 53.6226358,21.1340757 C53.507358,21.3736592 53.6736775,21.7253956 54.0125667,21.9111597 C54.3490253,22.0983126 54.7236784,22.0538681 54.8476368,21.8104651 C54.9715952,21.5670622 54.7972895,21.2153258 54.4597893,21.0274784 Z" id="Path" fill="#8E6E35"></path>
            <path d="M57.0250691,19.1285185 C56.9236801,18.620532 56.5535409,18.2500456 56.2004157,18.3038651 C55.8469432,18.3580318 55.6434708,18.8135877 55.7431236,19.3187965 C55.8486793,19.820533 56.199374,20.196575 56.5490271,20.148311 C56.8986801,20.1003943 57.1167358,19.6427551 57.0250691,19.1285185 Z" id="Path" fill="#8E6E35"></path>
        </g>
    </g>
</svg>